<?xml version="1.0" encoding="UTF-8"?>
<svg xmlns="http://www.w3.org/2000/svg" xmlns:xlink="http://www.w3.org/1999/xlink" width="184" height="72" fill="none">
  <style><![CDATA[.B{fill:#8f290b}]]></style>
  <path d="M113.736 14.4l16.252 2.327-.199-1.697 19.645.562 1.375 1.629 12.686-1.944 7.03 28.223 3.08 1.14 1.895 7.386-7.327 5.366-8.943-.638-1.648-2.147.444 2.993-23.001-.617-.721-3.001-7.469.929-.156 2.009-10.346.146-.155-2.137-3 1.572-14.216.869-.085-1.314-14.417 1.457-2.543-6.47-.034 5.613-13.034.643.313-5.678-5.849.671-.579 4.304-11.791.885-.269-1.377-22 1.494-.364-.817-12.106.817L9 51.557l1.913-7.308 2.502-.7 4.993-18.766-1.827-1.598 2.505-7.602 12.098-.734.525 1.564 20.206-1.549 1.241 1.158 16.265-.492.372 1.023 11.698-.752 2.3 3.956-.049-3.763 18.581-.362-.225 1.603 5.495-1.106 6.183-.021-.039-1.71z" fill="#4d0054"></path>
  <g fill="#d4481f">
    <path d="M28.675 18.206l.388-.098.95 1.554-1.243 6.254-6.355-.828-1.654-1.775 7.915-5.107zm27.526.195l10.042.23.522 2.795-.527 6.215-4.309-.253-2.528 23.729-7.601.255-.834-2.035 4.126-21.433-4.055.258-.817-2.251 2.091-4.627 9.667 2.277-5.037-2.85-.74-2.31zm16.499-.004l.269 2.736-1.158 9.31h-3.799l-.473-1.665L72.7 18.397zm42.139-.023s6.682 3.045 10.336 3.355c1.846.265 3.665.713 5.43 1.317-.726.913-1.483 1.806-2.328 2.615.713.393 1.558.604 2.168 1.161 1.98 2.764 2.931 6.384 2.12 9.741-.406 1.616-1.151 3.159-2.205 4.447-1.688 1.949-4.399 2.571-6.873 2.491l.913 2.194-.776 1.822-4.926-1.236 6.219 3.839-.67 2.019-7.604.258-.297-4.424.359-2.056-.412-.091-1.938-24.593.484-2.857zm7.387 10.524l.261 5.686c.913-.159 2.071-.393 2.419-1.395.298-1.2.065-2.649-.904-3.485-.494-.45-1.153-.622-1.776-.807zm10.439-10.529l7.762 2.865-.75 1.575-5.67.822 10.811 18.16-1.29 1.301s-4.194-.44-6.402-.578l8.468 6.823-.517 1.299-8.679.224-1.011-7.378.775-.968h-.484l-2.52-17.184.764-1.681-1.249.185-.581-4.066.573-1.399zm9.313 0l5.934.786-.894 1.003-5.544 1.349-.256-2.043.76-1.096zM31.874 25.395l8.045-6.799.678 1.952-1.163 7.026-6.273-.975-1.287-1.205zm8.787 1.301l8.806-8.081.822 1.932-1.26 8.588s-4.928-.602-7.383-.743l-.985-1.697zm112.462-5.699l1-1.325 12.664 23.169-.775 1.551-9.568-.783-3.59-3.615 1.269 2.313-1.581 1.662s-3.175-.384-4.922-.449l7.795 6.077-1.295 2.04-7.082.502-1.005-6.912.888-1.707-1.149-.068-3.799-20.671 1.036-1.031 12.137 10.241-2.023-10.995zm-78.526.544l5.317.252 5.58 10.189V21.793l6.841-.505.276 30.133-6.619-.042-5.82-12.216-.512 11.961-7.087.25-.38-2.038s.716-2.962.817-4.388l1.587-23.409zm19.4.353l-.093-2.712 4.652 9.857V30.8l-4.05-.255-.509-8.65zm6.625 1.387l2.861-1.706 8.1.221 1.996 8.023-.482 1.65-4.945-1.65-.436-2.412-2.372-.808s-.241 3.088 0 4.165l7.681 6.319c.264.174.385.461.426.765l1.127 5.762-.902 1.336-3.385.207 4.543 1.585-.511 2.074-2.488 2.282-11.906.541c.163-4.929.049-9.871.437-14.787l4.639 3.581c.083.997.111 2.001.256 2.99.752.206 1.543.211 2.316.304.276-1.085.279-2.241.139-3.341-2.328-2.428-7.094-7.18-7.094-7.18V23.28zm-84.259 19.03l11.135-15.609 1.201 2.682-.455 2.602h3.391c.447.049.801-.25 1.163-.461L38.33 28l.813 2.014-2.035 11.808-.677.046.483 1.321-1.579 7.668-7.09.265-1.285-2.045 8.441-7.097-5.89 1.236-1.256-2.207 2.006-1.614h-3.792l-1.011 3.542-7.596.773-1.499-1.4z"></path>
    <path d="M47.905 28.512l.931 1.991-3.113 20.618-8.108.51-1.091-2.032L46.723 30.7l1.182-2.187zM14.04 49.87l9.56-5.995 1.349 2.134-1.512 5.616-7.855.265-1.543-2.02zm143.386-3.086l1.319-2.131 7.032 4.151 2.273 1.314.291.254-1.546 2.023-6.343-.515-3.026-5.096z"></path>
  </g>
  <mask id="A" maskUnits="userSpaceOnUse" x="14" y="18" width="155" height="35">
    <g fill="#d4481f">
      <path d="M28.675 18.206l.388-.098.95 1.554-1.243 6.254-6.355-.828-1.654-1.775 7.915-5.107zm27.526.195l10.042.23.522 2.795-.527 6.215-4.309-.253-2.528 23.729-7.601.255-.834-2.035 4.126-21.433-4.055.258-.817-2.251 2.091-4.627 9.667 2.277-5.037-2.85-.74-2.31zm16.499-.004l.269 2.736-1.158 9.31h-3.799l-.473-1.665L72.7 18.397zm42.139-.023s6.682 3.045 10.336 3.355c1.846.265 3.665.713 5.43 1.317-.726.913-1.483 1.806-2.328 2.615.713.393 1.558.604 2.168 1.161 1.98 2.764 2.931 6.384 2.12 9.741-.406 1.616-1.151 3.159-2.205 4.447-1.688 1.949-4.399 2.571-6.873 2.491l.913 2.194-.776 1.822-4.926-1.236 6.219 3.839-.67 2.019-7.604.258-.297-4.424.359-2.056-.412-.091-1.938-24.593.484-2.857zm7.387 10.524l.261 5.686c.913-.159 2.071-.393 2.419-1.395.298-1.2.065-2.649-.904-3.485-.494-.45-1.153-.622-1.776-.807zm10.439-10.529l7.762 2.865-.75 1.575-5.67.822 10.811 18.16-1.29 1.301s-4.194-.44-6.402-.578l8.468 6.823-.517 1.299-8.679.224-1.011-7.378.775-.968h-.484l-2.52-17.184.764-1.681-1.249.185-.581-4.066.573-1.399zm9.313 0l5.934.786-.894 1.003-5.544 1.349-.256-2.043.76-1.096zM31.874 25.395l8.045-6.799.678 1.952-1.163 7.026-6.273-.975-1.287-1.205zm8.787 1.301l8.806-8.081.822 1.932-1.26 8.588s-4.928-.602-7.383-.743l-.985-1.697zm112.462-5.699l1-1.325 12.664 23.169-.775 1.551-9.568-.783-3.59-3.615 1.269 2.313-1.581 1.662s-3.175-.384-4.922-.449l7.795 6.077-1.295 2.04-7.082.502-1.005-6.912.888-1.707-1.149-.068-3.799-20.671 1.036-1.031 12.137 10.241-2.023-10.995zm-78.526.544l5.317.252 5.58 10.189V21.793l6.841-.505.276 30.133-6.619-.042-5.82-12.216-.512 11.961-7.087.25-.38-2.038s.716-2.962.817-4.388l1.587-23.409zm19.4.353l-.093-2.712 4.652 9.857V30.8l-4.05-.255-.509-8.65zm6.625 1.387l2.861-1.706 8.1.221 1.996 8.023-.482 1.65-4.945-1.65-.436-2.412-2.372-.808s-.241 3.088 0 4.165l7.681 6.319c.264.174.385.461.426.765l1.127 5.762-.902 1.336-3.385.207 4.543 1.585-.511 2.074-2.488 2.282-11.906.541c.163-4.929.049-9.871.437-14.787l4.639 3.581c.083.997.111 2.001.256 2.99.752.206 1.543.211 2.316.304.276-1.085.279-2.241.139-3.341-2.328-2.428-7.094-7.18-7.094-7.18V23.28zm-84.259 19.03l11.135-15.609 1.201 2.682-.455 2.602h3.391c.447.049.801-.25 1.163-.461L38.33 28l.813 2.014-2.035 11.808-.677.046.483 1.321-1.579 7.668-7.09.265-1.285-2.045 8.441-7.097-5.89 1.236-1.256-2.207 2.006-1.614h-3.792l-1.011 3.542-7.596.773-1.499-1.4z"></path>
      <path d="M47.905 28.512l.931 1.991-3.113 20.618-8.108.51-1.091-2.032L46.723 30.7l1.182-2.187zM14.04 49.87l9.56-5.995 1.349 2.134-1.512 5.616-7.855.265-1.543-2.02zm143.386-3.086l1.319-2.131 7.032 4.151 2.273 1.314.291.254-1.546 2.023-6.343-.515-3.026-5.096z"></path>
    </g>
  </mask>
  <g mask="url(#A)" class="B">
    <g filter="url(#C)">
      <path d="M29.063 18.108l-1.586 6.506-6.715-1.304 1.297-4.942 7.003-.26z"></path>
      <use xlink:href="#H"></use>
      <path d="M67.8 19.417l4.911-1.046-1.295 10.407h-3.874l.258-9.361z"></path>
      <use xlink:href="#I"></use>
      <path d="M132.671 18.371l7.239.26.517 2.597-7.232 1.564-.524-4.421z"></path>
      <path d="M141.978 18.369h5.43l.501.773-5.67 1.309-.261-2.082z"></path>
      <use xlink:href="#J"></use>
      <path d="M33.169 19.41l6.717-.781-1.292 7.807-6.717-1.041 1.292-5.986z"></path>
      <path d="M42.217 19.149l7.232-.518-1.551 8.846-7.234-.783 1.553-7.544z"></path>
      <use xlink:href="#K"></use>
      <path d="M93.907 19.152l4.908-.523-.264 10.412-4.125-.263-.519-9.626z"></path>
      <use xlink:href="#L"></use>
      <path d="M133.965 23.576l6.979-1.301 3.877 19.516-8.012-.526-2.844-17.689z"></path>
      <use xlink:href="#M"></use>
      <path d="M40.667 27.998l7.232.523-3.104 20.556-8.268.52 4.14-21.6z"></path>
      <path d="M28.509 42.579l7.759-1.309-1.556 7.547-7.751.258 1.548-6.496z"></path>
      <path d="M136.292 42.051l8.009 1.041 1.298 6.246-8.271-.263-1.036-7.024z"></path>
      <path d="M147.147 43.092l7.498 1.046.773 5.46-7.235.52-1.036-7.026z"></path>
      <path d="M15.601 45.168l8.002-1.291-1.556 5.72-8.007.273 1.561-4.702z"></path>
      <path d="M158.78 44.656l8.527.781 1.031 4.939-6.456-.518-3.102-5.202z"></path>
      <path d="M116.907 45.176l7.756 2.087.256 2.852-7.244.263h-.507l-.261-5.202z"></path>
    </g>
  </g>
  <path d="M29.063 18.108l-1.586 6.506-6.715-1.304 1.297-4.942 7.003-.26z" fill="url(#D)"></path>
  <use xlink:href="#H" fill="url(#E)"></use>
  <path d="M67.8 19.417l4.911-1.046-1.295 10.407h-3.874l.258-9.361z" fill="url(#D)"></path>
  <use xlink:href="#I" fill="url(#E)"></use>
  <path d="M132.671 18.371l7.239.26.517 2.597-7.232 1.564-.524-4.421z" fill="url(#D)"></path>
  <path d="M141.978 18.369h5.43l.501.773-5.67 1.309-.261-2.082z" fill="url(#D)"></path>
  <use xlink:href="#J" fill="url(#E)"></use>
  <path d="M33.169 19.41l6.717-.781-1.292 7.807-6.717-1.041 1.292-5.986z" fill="url(#D)"></path>
  <path d="M42.217 19.149l7.232-.518-1.551 8.846-7.234-.783 1.553-7.544z" fill="url(#D)"></path>
  <use xlink:href="#K" fill="url(#E)"></use>
  <path d="M93.907 19.152l4.908-.523-.264 10.412-4.125-.263-.519-9.626z" fill="url(#D)"></path>
  <use xlink:href="#L" fill="url(#E)"></use>
  <path d="M133.965 23.576l6.979-1.301 3.877 19.516-8.012-.526-2.844-17.689z" fill="url(#D)"></path>
  <use xlink:href="#M" fill="url(#E)"></use>
  <path d="M40.667 27.998l7.232.523-3.104 20.556-8.268.52 4.14-21.6z" fill="url(#D)"></path>
  <path d="M28.509 42.579l7.759-1.309-1.556 7.547-7.751.258 1.548-6.496z" fill="url(#D)"></path>
  <path d="M136.292 42.051l8.009 1.041 1.298 6.246-8.271-.263-1.036-7.024z" fill="url(#D)"></path>
  <path d="M147.147 43.092l7.498 1.046.773 5.46-7.235.52-1.036-7.026z" fill="url(#D)"></path>
  <path d="M15.601 45.168l8.002-1.291-1.556 5.72-8.007.273 1.561-4.702z" fill="url(#D)"></path>
  <path d="M158.78 44.656l8.527.781 1.031 4.939-6.456-.518-3.102-5.202z" fill="url(#D)"></path>
  <path d="M116.907 45.176l7.756 2.087.256 2.852-7.244.263h-.507l-.261-5.202z" fill="url(#D)"></path>
  <mask id="B" maskUnits="userSpaceOnUse" x="14" y="18" width="155" height="33">
    <path d="M29.063 18.108l-1.586 6.506-6.715-1.304 1.297-4.942 7.003-.26z" fill="url(#D)"></path>
    <path d="M56.201 18.401l10.048.23-.522 7.284-4.389-.26-2.587 23.419-7.754.263 3.363-23.422h-4.133l1.295-7.284 10.204 2.6-5.525-2.83z" fill="url(#D)"></path>
    <path d="M67.8 19.417l4.911-1.046-1.295 10.407h-3.874l.258-9.361z" fill="url(#D)"></path>
    <path d="M114.839 18.369l9.576.528c2.588.247 4.821 1.991 6.19 4.148l-8.981 2.187-1.066.586 10.564-1.724c1.456 3.326 2.303 7.058 1.706 10.688-.369 1.928-1.137 3.953-2.781 5.137-1.693 1.226-3.874 1.502-5.908 1.366l.263 4.409-7.487-1.559-2.076-25.766zm8.018 9.34l.517 5.514c.91-.102 2.008-.341 2.432-1.265.432-1.234.041-2.787-1.062-3.534-.559-.401-1.231-.573-1.887-.716z" fill="url(#D)"></path>
    <path d="M132.671 18.371l7.239.26.517 2.597-7.232 1.564-.524-4.421z" fill="url(#D)"></path>
    <path d="M141.978 18.369h5.43l.501.773-5.67 1.309-.261-2.082z" fill="url(#D)"></path>
    <path d="M154.128 19.673l6.976-1.301 5.683 24.463-9.816-.526-3.618-4.939.778 4.942-7.243-.263-3.876-20.294 6.458-1.301 6.72 9.103-2.062-9.884z" fill="url(#D)"></path>
    <path d="M33.169 19.41l6.717-.781-1.292 7.807-6.717-1.041 1.292-5.986z" fill="url(#D)"></path>
    <path d="M42.217 19.149l7.232-.518-1.551 8.846-7.234-.783 1.553-7.544z" fill="url(#D)"></path>
    <path d="M85.375 19.152l6.978-.523v30.969l-6.464-.266-5.942-12.494-.519 12.239-7.234.26 2.07-30.448 5.425.263 5.686 10.415V19.152z" fill="url(#D)"></path>
    <path d="M93.907 19.152l4.908-.523-.264 10.412-4.125-.263-.519-9.626z" fill="url(#D)"></path>
    <path d="M100.632 20.44l3.061-1.454 8.303.163.773.781.776 9.889-5.17-1.306-.258-2.855-2.582-.783v3.38l8.268 6.769.778 8.588-3.522-.716-.581.195 4.356 1.299.005 2.342-2.843 2.345-11.889.523.261-12.752 4.906 1.301.263 3.12 2.327.265c.449-1.075.191-2.259.255-3.386l-7.495-6.771.008-10.938z" fill="url(#D)"></path>
    <path d="M133.965 23.576l6.979-1.301 3.877 19.516-8.012-.526-2.844-17.689z" fill="url(#D)"></path>
    <path d="M20.504 25.918l6.976.781-.517 2.86h3.874l.522-2.6L38.335 28l-2.324 12.481-7.756.528.775-3.904c-1.29-.003-2.582.003-3.872 0l-1.044 4.684-7.749.52 4.138-16.393z" fill="url(#D)"></path>
    <path d="M40.667 27.998l7.232.523-3.104 20.556-8.268.52 4.14-21.6z" fill="url(#D)"></path>
    <path d="M28.509 42.579l7.759-1.309-1.556 7.547-7.751.258 1.548-6.496z" fill="url(#D)"></path>
    <path d="M136.292 42.051l8.009 1.041 1.298 6.246-8.271-.263-1.036-7.024z" fill="url(#D)"></path>
    <path d="M147.147 43.092l7.498 1.046.773 5.46-7.235.52-1.036-7.026z" fill="url(#D)"></path>
    <path d="M15.601 45.168l8.002-1.291-1.556 5.72-8.007.273 1.561-4.702z" fill="url(#D)"></path>
    <path d="M158.78 44.656l8.527.781 1.031 4.939-6.456-.518-3.102-5.202z" fill="url(#D)"></path>
    <path d="M116.907 45.176l7.756 2.087.256 2.852-7.244.263h-.507l-.261-5.202z" fill="url(#D)"></path>
  </mask>
  <g mask="url(#B)">
    <path d="M22.064 18.369l6.978-.26-1.556 6.503-6.715-1.304 1.292-4.939z" fill="url(#F)"></path>
    <path d="M67.809 19.407l4.911-1.041-.519 4.179-4.407-2.306.016-.833z" fill="url(#F)"></path>
    <path d="M132.68 18.366l7.239.263.517 2.6-7.234 1.561-.522-4.424z" fill="url(#F)"></path>
    <path d="M141.987 18.366h5.425l.519.781-5.683 1.301-.261-2.082z" fill="url(#F)"></path>
    <path d="M154.14 19.667l6.973-1.293.672 2.883-6.942 1.788-.703-3.378z" fill="url(#F)"></path>
    <path d="M33.175 19.41l6.72-.783-1.292 7.807-6.717-1.041 1.29-5.983z" fill="url(#F)"></path>
    <path d="M42.224 19.149l7.234-.523-1.551 8.848-7.234-.781 1.551-7.544z" fill="url(#F)"></path>
    <path d="M51.528 18.629l8.012 2.04 6.42 2.027-.222 3.217-4.391-.26-.687 6.256-7.038-.799.747-5.197c-1.378-.003-2.755.003-4.133 0l1.292-7.284z" fill="url(#F)"></path>
    <path d="M64.715 18.593l1.535.034-.026.778-1.51-.812z" fill="url(#F)"></path>
    <path d="M85.384 19.149l6.978-.523v30.969l-6.462-.263-5.942-12.473-.522 12.213-7.237.263.602-9.004c.667-.31 1.347-.588 2.047-.812a17.01 17.01 0 0 1-1.99.19l.385-5.668c.822-.172 1.773-.049 2.51-.466l-2.468-.151.615-9.077 2.688.479-2.626-1.356.31-4.583 5.425.263 5.683 10.402.003-10.402z" fill="url(#F)"></path>
    <path d="M93.916 19.149l4.908-.523-.261 10.41-4.13-.263-.517-9.624z" fill="url(#F)"></path>
    <path d="M100.633 20.451l3.12-1.533 7.777.219-2.2 3.669 3.611-.932.613 7.943-5.164-1.301-.262-2.86-2.584-.783v3.383l8.271 6.769.778 8.583-3.965-.955c-1.006-.32-2.083.068-2.98.526l7.242 3.04c0 .359-.148.669-.452.861l-2.433 1.996-11.889.523.261-12.752 4.908 1.301.261 3.12 2.342.265c.398-1.085.197-2.256.24-3.386l-7.495-6.771V20.451z" fill="url(#F)"></path>
    <path d="M124.029 19.058c.364-.091.747-.151 1.122-.052 2.3.468 4.215 2.098 5.476 4.039l-9.333 2.561 9.84-1.515c.499 1.116.905 2.269 1.22 3.451l-6.599 2.04c-.563-1.106-1.716-1.689-2.889-1.884l.248 2.712-7.121 2.241-.904-11.318 8.94-2.274z" fill="url(#F)"></path>
    <path d="M143.021 21.752l6.459-1.301 2.457 3.302-8.141 2.048-.775-4.049z" fill="url(#F)"></path>
    <path d="M133.974 23.574l6.979-1.301.804 4.065-7.061 1.72-.722-4.484z" fill="url(#F)"></path>
    <path d="M67.7 23.188l4.319.796-.594 4.791H67.55l.15-5.587z" fill="url(#F)"></path>
    <path d="M20.513 25.913l6.976.783-.264 1.447-7.079-.786.367-1.444z" fill="url(#F)"></path>
    <path d="M31.368 26.957l6.976 1.041-.253 1.351-7.043-.786.321-1.606z" fill="url(#F)"></path>
    <path d="M40.673 27.998l7.234.521-.289 1.913-7.255-.817.31-1.616z" fill="url(#F)"></path>
    <path d="M116.192 35.136l15.973 1.986c-.636 1.559-1.817 2.904-3.401 3.521-1.453.593-3.06.729-4.614.643l.261 4.406-7.492-1.572-.727-8.983z" fill="url(#F)"></path>
    <path d="M52.813 36.77l7.415-.981-.563 5.082-7.534.656.682-4.757z" fill="url(#F)"></path>
    <path d="M38.722 38.597l7.816-1.007-.68 4.513-8.025.726c.315-1.403.442-2.878.889-4.231z" fill="url(#F)"></path>
    <path d="M136.236 37.66l7.984 1.075.61 3.053-8.01-.52-.584-3.607z" fill="url(#F)"></path>
    <path d="M28.481 39.93l7.826-1.02-.29 1.574-7.754.523.217-1.077z" fill="url(#F)"></path>
    <path d="M146.425 39.576l7.417.869.295 1.863-7.24-.263-.472-2.47z" fill="url(#F)"></path>
    <path d="M155.752 40.648l10.819 1.26.228.82v.091l-9.816-.51-1.231-1.66z" fill="url(#F)"></path>
    <path d="M28.525 42.571l7.751-1.304-.364 1.757-7.666.679.279-1.132z" fill="url(#F)"></path>
    <path d="M51.557 48.856l7.573-3.04-.367 3.256-7.852.237a1.59 1.59 0 0 1 .646-.453z" fill="url(#F)"></path>
    <path d="M136.986 46.753l4.91 2.491-4.559-.172-.351-2.319z" fill="url(#F)"></path>
    <path d="M117.007 47.105l7.234 3.032-6.438.239h-.628l-.168-3.271z" fill="url(#F)"></path>
    <path d="M69.982 18.991l2.745-.57-.238 1.913-2.507-1.343z" fill="url(#G)"></path>
    <path d="M85.475 19.196l6.896-.518v30.969h-.543l-5.919-.263-5.942-12.476-.522 12.218-7.265.258c.119-.528-.07-1.262.491-1.575l5.203-3.399-1.318-2.511-3.97 1.892 1.142-16.754c1.959.245 4.146 1.27 4.146 1.27l3.334-2.621s-4.49-3.05-7.077-4.458l.147-2.29 5.428.263 5.684 10.402c.026-3.469-.057-6.941.085-10.407z" fill="url(#G)"></path>
    <path d="M93.921 19.201l4.911-.523-.261 10.41-4.13-.26-.519-9.626z" fill="url(#G)"></path>
    <path d="M100.641 20.5l3.122-1.522 5.032.117-2.582 5.986-.667-.115.006 3.342 4.621 3.742c-1.246.945-2.037 2.353-3.081 3.5l6.883 1.291.403 4.359-6.242-.419v-2.582l-7.495-6.771V20.5z" fill="url(#G)"></path>
    <path d="M51.117 21.021l14.704 3.898-.072 1.046-4.394-.26-.419 3.854-6.671-2.779.109-.817c-1.396.156-2.758-.107-3.988-.791l.732-4.151z" fill="url(#G)"></path>
    <path d="M115.321 24.185l9.37-1.616-1.861 2.311c-.391.461-1.029.541-1.536.817l1.039-.159-2.985 3.61c-1.15.474-2.365.768-3.538 1.176l-.489-6.139z" fill="url(#G)"></path>
    <path d="M107.379 25.523l5.766-.965.416 5.311-5.164-1.301-.261-2.881-.757-.164z" fill="url(#G)"></path>
    <path d="M67.656 25.398l4.071 1.083-.295 2.347h-3.874l.098-3.43z" fill="url(#G)"></path>
    <path d="M100.385 36.895l4.908 1.301.261 3.128 1.091.102-3.525 2.186 9.064 5.496-11.3.539h-.76l.261-12.752z" fill="url(#G)"></path>
    <path d="M116.368 37.283l13.911 2.595c-1.784 1.228-3.991 1.624-6.121 1.462l.031.559-7.49-.547-.331-4.07z" fill="url(#G)"></path>
  </g>
  <g opacity=".98" fill="#fff1bc">
    <path d="M133.061 18.792l.194.098.775 2.733 3.489-.293-3.974.976-.484-3.513zM26.737 23.183l1.648-4.587-1.221 5.604-5.854-1.31 5.428.293zm38.09 1.757l.969-5.855-.485 6.343-4.361-.264 3.877-.224zm-25.49-5.953l-.92 7.011-6.058-1.058 5.309.316 1.67-6.269zm7.774 7.288l1.724-7.093-1.176 7.952-6.287-.859h5.739zm23.629 1.69l1.357-8.783-1.066 9.174-2.908-.098 2.617-.293zm46.619 15.907l-1.938-24.398 2.423 23.617 6.106 1.952-6.591-1.171zM154.521 20l.832-.038 1.745 11.516-1.107-4.072-1.47-7.406zM72.509 49.072l1.97-28.491.01 1.093-1.229 26.493 5.621.39.485.39-6.857.125zm28.358-28.135l.306-.487.388 10.345 7.59 7.323.049 3.638-.701.565-3.158-.565 2.939-.237.23-3.214-7.529-7.073-.114-10.295zm43.145 4.354l-.29-2.693 3.974 18.152 5.912 1.046-6.396-.168-3.2-16.337zm-6.955 15.784l-2.542-17.208 3.097 16.339 6.692 1.032-7.247-.163zM60.563 28.063l.24-1.788-.124 2.524-2.346 19.855-6.688.195 6.106-.781 2.811-20.006zm-22.874.488l-2.034 11.612-6.786.294 6.106-.976 2.714-10.93zm9.595.585L44.57 48.752l-7.56.39 6.751-1.187 3.523-18.819zm44.744 1.461l.035 18.74-5.912-.289-5.335-11.065 5.722 10.378 5.04.39.45-18.154zm60.877 5.39l4.677 5.25 7.851 1.074-8.335-.293-4.193-6.031zm-128.169.599l-.933 4.937-7.05.301 6.494-1.073 1.489-4.164zm75.849 2.524l.298-1.874.243 11.503 10.806-.182-5.025.695-6.474.221.152-10.363zm-66.579 8.568l1.648-5.855-1.229 6.61-6.913.124 6.494-.878zm103.606 1.074l-.771-6.343 1.357 5.66 6.978.781-7.564-.098zm10.168-4.977l1.119 5.27 6.066.098-6.59.585-.595-5.953zm-124.823.683l-1.127 4.617-7.402.263 6.865-.762 1.664-4.117zm136.811.89l3.339 4.282-1.066-.098-1.258-1.97-1.015-2.215zm-42.215 4.673l-.116-4.196.698 3.416 6.3.39-6.882.39z"></path>
  </g>
  <path d="M29.067 18.108l-1.587 6.524-6.736-1.317 1.303-4.947 7.02-.26zm-6.622.802l-1.023 3.992 5.663 1.093 1.266-5.335-5.906.25zm33.756-.509l10.063.23-.535 7.297-4.368-.276-2.608 23.424-7.774.268 3.381-23.429h-4.154l1.313-7.302 10.134 2.569-5.452-2.781zm2.467.563l3.833 1.974.442 1.18-11.01-2.824-1.075 6.1h4.104L51.61 48.796l6.663-.245 2.587-23.443 4.373.252.455-6.207-7.02-.19zm9.132.443l4.929-1.054-1.31 10.425h-3.885l.266-9.371zm.553.523l-.282 8.325 2.874.003 1.145-9.207-3.737.88zm46.468-1.569l9.579.526c2.613.234 4.841 2.009 6.239 4.161l-9.887 2.673 10.378-1.647c1.427 3.261 2.254 6.899 1.753 10.464-.339 2.02-1.117 4.143-2.823 5.387-1.695 1.239-3.882 1.499-5.919 1.369l.274 4.416-7.505-1.572-2.089-25.777zm.59.536l2.023 24.762c2.115.539 4.273.908 6.408 1.369l-.249-4.336c2.014.221 4.177.075 5.927-1.051 1.592-1.01 2.342-2.889 2.734-4.664.657-3.482-.134-7.066-1.442-10.3l-11.886 1.879 1.341-1.226 9.501-2.615c-1.269-1.595-3.001-2.948-5.058-3.245-3.089-.346-6.198-.437-9.299-.573zm17.241-.539l7.261.271.532 2.602-7.252 1.58-.541-4.453zm.613.554l.385 3.232 6.146-1.314-.302-1.655-6.229-.263zm8.692-.543h5.454l.529.781-5.699 1.319-.284-2.1zm.615.52l.122.908 4.324-.908-.097-.098-4.349.098zm11.535.784l6.997-1.322 5.704 24.494-9.845-.531-3.598-4.926.781 4.932-7.26-.268-3.893-20.296 6.47-1.325 6.712 9.095-2.068-9.853zm.654.416l2.406 11.617c-2.703-3.508-5.267-7.125-7.924-10.667l-5.609 1.127 3.681 19.281c2.042.273 4.13.18 6.19.317l-.974-6.36c1.618 2.09 3.13 4.26 4.709 6.378l8.875.487-5.407-23.284-5.947 1.104zm-121.6-.679l6.757-.813-1.327 7.861-6.735-1.062 1.305-5.986zm.496.513l-1.14 5.036 5.645.867 1.083-6.587-5.588.684zm8.553-.774l7.258-.536-1.569 8.885-7.255-.804 1.566-7.544zm.483.531l-1.388 6.545 6.164.671 1.339-7.698-6.115.482zm42.682-.531l6.978-.536v30.995l-6.469-.271-5.872-12.452c-.3 4.06-.352 8.13-.581 12.192l-7.237.26 2.07-30.459 5.433.271 5.668 10.3.01-10.3zM72.752 48.793l6.164-.239.594-13.801 6.71 14.053 5.616.247v-29.86l-5.945.461-.005 11.901-6.516-11.88-4.608-.237-2.011 29.355zm21.139-29.641l4.929-.544-.264 10.43-4.135-.26-.53-9.626zm.558.481l.483 8.635 3.102.213.243-9.27-3.828.422zm9.284-.726l8.276.242.76.768.81 9.902-5.198-1.296-.277-2.855-2.569-.788v3.362l8.273 6.779.791 8.606-3.54-.731-.581.195 4.361 1.296v2.355l-2.827 2.334-11.907.531.263-12.778 4.908 1.312.272 3.11 2.329.281c.385-1.085.199-2.248.242-3.373l-7.495-6.771V20.443l3.109-1.535zm-2.592 1.874v10.36l7.495 6.761c-.046 1.403.207 2.863-.382 4.19l-3.21-.343a66.76 66.76 0 0 0-.292-3.198l-3.862-1.012-.253 11.513 11.101-.494 2.585-2.079-.013-1.699-5.268-1.548 1.902-.921 3.05.627-.703-7.646-8.273-6.777v-4.346l3.585 1.072.292 2.868 4.071 1.012-.743-8.766-.582-.683-7.657-.195s-1.639.846-2.843 1.306zm32.804 2.793l6.999-1.319 3.892 19.552-8.03-.536-2.861-17.696zm.63.422l2.688 16.76 6.899.466-3.629-18.326-5.958 1.101zM20.502 25.897l6.997.804-.532 2.857h3.856l.538-2.623L38.353 28l-2.342 12.489-7.772.536.788-3.919h-3.856l-1.049 4.684-7.772.536 4.151-16.429zm-3.437 15.841l6.642-.481 1.016-4.671h4.944l-.755 3.854 6.617-.484c.809-3.818 1.453-7.677 2.182-11.513l-5.937-.885-.491 2.522h-4.944l.512-2.917-5.945-.674-3.841 15.25zm105.213-14.589c1.057.073 2.163.302 2.993 1.015 1.116.908 1.471 2.543 1.07 3.891-.535 1.359-2.15 1.731-3.456 1.697l-.607-6.602zm.579.552l.543 5.533c.948-.146 2.129-.401 2.465-1.45.264-1.08 0-2.337-.835-3.105-.591-.567-1.403-.783-2.173-.979zm-82.196.281l7.258.539-3.122 20.556-8.289.536 4.154-21.631zm.424.578l-3.908 20.473 7.159-.468 2.949-19.526-6.2-.479zM28.509 42.571l7.774-1.317-1.564 7.563-7.777.268 1.566-6.514zm.476.492c-.54 1.796-.884 3.649-1.347 5.465l6.666-.255 1.282-6.342-6.601 1.132zm107.288-1.031l8.033 1.059 1.311 6.254-8.292-.268-1.052-7.045zm.647.638l.865 5.881 7.155.242-1.117-5.194-6.903-.929zm10.209.403l7.513 1.059.796 5.462-7.255.539-1.054-7.06zm.646.645l.858 5.837 6.18-.455-.641-4.489-6.397-.893zM15.586 45.171l8.03-1.312-1.556 5.738-8.02.273 1.546-4.7zm.451.458l-1.252 3.682 6.883-.255 1.204-4.518-6.835 1.09zm142.708-.976l8.567.783 1.026 4.939-6.464-.518-3.129-5.205zm1.028.625l2.411 4.057 5.49.463-.84-3.839-7.061-.682zm-42.879-.12l7.767 2.09.276 2.868-7.04.263h-.731l-.272-5.22zm.571.721l.215 3.961 6.673-.247-.214-1.936-6.674-1.777z" fill="#ffe486"></path>
  <g fill="#9f0400">
    <path d="M156.904 23.183c-.194 0-.388.195-.194.585.097.065.329.156.485 0 .193-.195-.097-.585-.291-.585zm.969.976c-.388.195-.485.781-.097 1.171.065.065.291.176.679.098.484-.098.581-.586.484-.976s-.678-.488-1.066-.293zm1.551-.488c-.291.098-.388.293-.194.683.065.065.233.176.388.098a.54.54 0 0 0 .29-.488c0-.195-.193-.39-.484-.293zm1.357 13.077c-.291 0-.291.488 0 .683.097.033.31.039.387-.195.097-.293-.097-.488-.387-.488zm-.097 1.659c-.485.098-.485.976-.194 1.269a.46.46 0 0 0 .388 0c.193-.098.969-.39.969-.878s-.679-.488-1.163-.39zm1.794 2.031l.047.019c.13.065.466.156.776 0 .387-.195.969-.39 1.066-.781s-.776-.976-1.26-1.073-.969.586-1.163 1.073c-.188.472.078.579.534.762zm-12.068 5.191c-.097.098-.388.293.097.683.097.032.31.078.388 0 .097-.098.29-.098.193-.39s-.581-.39-.678-.293zm-.097 1.659c-.194 0-.388.683 0 .976.129.032.427.078.582 0 .193-.098.484 0 .387-.586s-.775-.39-.969-.39zm1.163-.586c-.194.39.388 1.074.969 1.269.162.098.543.176.776-.293.291-.586.097-.878-.291-1.366s-1.26 0-1.454.39zm-5.04-20.981c-.388-.195-.872.781-.581 1.073.193.13.639.312.872 0 .291-.39.097-.878-.291-1.073zm1.066 1.073c-.194-.195-.484.683-.194.878.162 0 .504-.039.582-.195.097-.195-.194-.488-.388-.683zm-10.08 1.561c-.29-.195-.678.586-.29.781.097.065.349.156.581 0 .291-.195 0-.586-.291-.781zm.97.586c-.388 0-.291.585-.097.683.097 0 .329-.019.484-.098.194-.098 0-.585-.387-.585zm-9.983 5.758c-.388 0-.582.488-.291.878.218.293.698-.078.775-.39.097-.39-.097-.488-.484-.488zm1.356.488c-.581 0-.484.878 0 1.074.065.065.252.156.485 0 .291-.195.485 0 .582-.488s-.485-.586-1.067-.586zm-12.987-15.615c-.388-.195-.485.39-.291.781.194.065.62.156.775 0 .194-.195-.096-.586-.484-.781zM55.329 31.771c-.388-.098-.678.488-.388.878.226.098.717.215.872-.098.194-.39-.097-.683-.485-.781zm1.26 1.074c-.194-.195-.582.293-.291.488.097.065.31.156.388 0 .097-.195.097-.293-.097-.488zM42.826 45.239c-.582-.195-.775.586-.291 1.074a.74.74 0 0 0 .485.195c.291 0 .485-.098.679-.585s-.291-.488-.872-.683zm.872-.879c-.291-.098-.291.293-.097.585.097.065.33.137.485-.098.194-.293-.097-.39-.388-.488zm-11.437 1.464c-.582.293-.775.976-.291 1.366l.582.195c.291.098.485-.195.775-.39s.291-1.659 0-1.952-.485.488-1.066.781zm-1.066-.781c-.388 0-.388.39 0 .781.097.098.329.273.485.195.194-.098.194-.39.194-.683s-.291-.293-.678-.293zm-.678 1.757c-.194.098-.097.39.194.586a.46.46 0 0 0 .388 0c.194-.098.097-.39 0-.586s-.388-.098-.581 0zm-10.952-7.807c-.194 0-.388.293 0 .585.065.098.233.273.388.195.194-.098.194-.293.194-.488s-.388-.293-.582-.293zm1.066-1.366c-.097.098-.291.39 0 .586.129.032.427.078.581 0 .194-.098 0-.39 0-.586s-.485-.098-.581 0zm.484 1.171c-.291.098-.388.976.097 1.171.226.065.756.156 1.066 0 .388-.195.388-.586.194-.976s-1.066-.293-1.357-.195zm2.714-9.759c-.678.098-.388.976-.194 1.269.162.163.581.468.969.39.485-.098.388-.585.388-.976s-.485-.781-1.163-.683z"></path>
    <path d="M24.992 28.453c-.291 0-.194.488 0 .683.097.065.31.176.388.098.097-.098.194-.195.194-.488s-.291-.293-.582-.293zm10.08 1.171c-.291.195-.291.586.194.976.162.065.504.156.581 0a.84.84 0 0 0 0-.683c-.097-.195-.485-.488-.775-.293z"></path>
  </g>
  <defs>
    <filter id="C" x="11.886" y="16.816" width="158.606" height="36.578" color-interpolation-filters="sRGB">
      <feFlood flood-opacity="0" result="A"></feFlood>
      <feColorMatrix in="SourceAlpha" values="0 0 0 0 0 0 0 0 0 0 0 0 0 0 0 0 0 0 127 0" result="B"></feColorMatrix>
      <feOffset dy="0.861534"></feOffset>
      <feGaussianBlur stdDeviation="1.077"></feGaussianBlur>
      <feComposite in2="B" operator="out"></feComposite>
      <feColorMatrix values="0 0 0 0 0.716667 0 0 0 0 0.144968 0 0 0 0 0.0298612 0 0 0 1 0"></feColorMatrix>
      <feBlend in2="A"></feBlend>
      <feBlend in="SourceGraphic"></feBlend>
    </filter>
    <radialGradient id="D" cx="0" cy="0" r="1" gradientUnits="userSpaceOnUse" gradientTransform="translate(91.189 34.2434) rotate(179.948) scale(72.1091 86.6612)">
      <stop stop-color="#ff8b34"></stop>
      <stop offset="1" stop-color="#dc1f00"></stop>
    </radialGradient>
    <radialGradient id="E" cx="0" cy="0" r="1" gradientUnits="userSpaceOnUse" gradientTransform="matrix(-72.10907030239188,0.06544413422955855,-0.07865119943661229,-86.66116430921538,91.189,34.2434)">
      <stop stop-color="#ff8b34"></stop>
      <stop offset="1" stop-color="#dc1f00"></stop>
    </radialGradient>
    <radialGradient id="F" cx="0" cy="0" r="1" gradientUnits="userSpaceOnUse" gradientTransform="translate(89.2518 34.3084) rotate(-178.372) scale(54.9773 30.6054)">
      <stop stop-color="#ffc700"></stop>
      <stop offset=".179" stop-color="#fdc601"></stop>
      <stop offset="1" stop-color="#ff5000"></stop>
    </radialGradient>
    <radialGradient id="G" cx="0" cy="0" r="1" gradientUnits="userSpaceOnUse" gradientTransform="translate(90.3322 34.0338) rotate(90.0432) scale(18.8362 48.1926)">
      <stop stop-color="#fcda00"></stop>
      <stop offset="1" stop-color="#ffaf00"></stop>
    </radialGradient>
    <path id="H" d="M56.201 18.401l10.048.23-.522 7.284-4.389-.26-2.587 23.419-7.754.263 3.363-23.422h-4.133l1.295-7.284 10.204 2.6-5.525-2.83z"></path>
    <path id="I" d="M114.839 18.369l9.576.528c2.588.247 4.821 1.991 6.19 4.148l-8.981 2.187-1.066.586 10.564-1.724c1.456 3.326 2.303 7.058 1.706 10.688-.369 1.928-1.137 3.953-2.781 5.137-1.693 1.226-3.874 1.502-5.908 1.366l.263 4.409-7.487-1.559-2.076-25.766zm8.018 9.34l.517 5.514c.91-.102 2.008-.341 2.432-1.265.432-1.234.041-2.787-1.062-3.534-.559-.401-1.231-.573-1.887-.716z"></path>
    <path id="J" d="M154.128 19.673l6.976-1.301 5.683 24.463-9.816-.526-3.618-4.939.778 4.942-7.243-.263-3.876-20.294 6.458-1.301 6.72 9.103-2.062-9.884z"></path>
    <path id="K" d="M85.375 19.152l6.978-.523v30.969l-6.464-.266-5.942-12.494-.519 12.239-7.234.26 2.07-30.448 5.425.263 5.686 10.415V19.152z"></path>
    <path id="L" d="M100.632 20.44l3.061-1.454 8.303.163.773.781.776 9.889-5.17-1.306-.258-2.855-2.582-.783v3.38l8.268 6.769.778 8.588-3.522-.716-.581.195 4.356 1.299.005 2.342-2.843 2.345-11.889.523.261-12.752 4.906 1.301.263 3.12 2.327.265c.449-1.075.191-2.259.255-3.386l-7.495-6.771.008-10.938z"></path>
    <path id="M" d="M20.504 25.918l6.976.781-.517 2.86h3.874l.522-2.6L38.335 28l-2.324 12.481-7.756.528.775-3.904c-1.29-.003-2.582.003-3.872 0l-1.044 4.684-7.749.52 4.138-16.393z"></path>
  </defs>
</svg>
