<?xml version="1.0" encoding="UTF-8"?>
<svg xmlns="http://www.w3.org/2000/svg" version="1.1" width="452" height="212">
  <path d="M0 0 C0.89976563 0.47566406 1.79953125 0.95132813 2.7265625 1.44140625 C4.58062712 2.3582793 6.43478851 3.27495671 8.2890625 4.19140625 C9.07410156 4.59875 9.85914063 5.00609375 10.66796875 5.42578125 C14.95408797 7.54037517 19.01467237 8.0898315 23.7265625 7.44140625 C26.32873693 6.35416109 28.35392887 5.02316201 30.7265625 3.44140625 C31.7165625 2.78140625 32.7065625 2.12140625 33.7265625 1.44140625 C31.1548385 11.47112985 23.81885141 20.26499522 15.37890625 26.05078125 C9.14414988 29.56833001 3.79314822 30.04596206 -3.2734375 29.44140625 C-3.32951172 28.55388672 -3.32951172 28.55388672 -3.38671875 27.6484375 C-3.78396578 22.87368403 -4.21587111 19.32216359 -7.2734375 15.44140625 C-10.59844063 13.22473749 -12.31067578 12.67002712 -16.2734375 12.44140625 C-19.83540423 13.58848028 -22.45337619 14.7238526 -25.2734375 17.19140625 C-26.79679781 20.61896695 -26.21509063 22.86312436 -25.2734375 26.44140625 C-23.30833841 29.21150595 -23.30833841 29.21150595 -21.2734375 31.44140625 C-21.2734375 32.10140625 -21.2734375 32.76140625 -21.2734375 33.44140625 C-20.70625 33.70695312 -20.1390625 33.9725 -19.5546875 34.24609375 C-17.12944737 35.51685313 -14.99868561 36.9716451 -12.7734375 38.56640625 C-8.92887172 41.29792196 -5.03340596 43.92344067 -1.0859375 46.50390625 C8.11391705 52.66462831 15.09460751 58.54554127 18.7265625 69.44140625 C19.63000176 80.0012782 18.31069802 88.36071976 11.5390625 96.69140625 C3.54511953 105.16464345 -6.13552065 109.8785798 -17.71875 110.6796875 C-28.15750602 110.89023566 -37.36337805 109.913806 -45.7734375 103.25390625 C-51.18276495 97.94600369 -53.45258825 92.36020429 -53.7109375 84.81640625 C-53.38434952 77.25220715 -50.51691648 72.33143917 -45.67578125 66.7265625 C-44.2734375 65.44140625 -44.2734375 65.44140625 -42.2734375 65.44140625 C-42.80196631 67.73169777 -43.41309479 69.77001165 -44.3359375 71.94140625 C-46.07704976 78.44155869 -46.47222883 85.58570699 -43.7734375 91.87890625 C-40.78590795 97.01874203 -35.76593914 99.61057237 -30.2734375 101.44140625 C-18.52251787 102.39427723 -18.52251787 102.39427723 -8.2734375 97.44140625 C-4.28600503 92.92777302 -3.00655882 87.37204367 -3.2734375 81.44140625 C-4.31061141 76.43763593 -5.63043418 73.02301064 -9.2734375 69.44140625 C-9.2734375 68.78140625 -9.2734375 68.12140625 -9.2734375 67.44140625 C-10.09521484 67.07015625 -10.09521484 67.07015625 -10.93359375 66.69140625 C-15.4981539 64.25291001 -19.4740078 60.8654468 -23.57519531 57.7265625 C-25.2700794 56.44394751 -26.98334196 55.19037788 -28.703125 53.94140625 C-37.22707813 47.68537238 -45.35257452 41.06979885 -47.7578125 30.265625 C-48.91981044 20.91837689 -46.42016376 14.73081174 -41.2734375 7 C-31.17772478 -5.91541374 -14.0417847 -6.78879673 0 0 Z " fill="#FDE075" transform="translate(74.2734375,49.55859375)"></path>
  <path d="M0 0 C-0.474375 0.763125 -0.94875 1.52625 -1.4375 2.3125 C-3.60813767 6.0459968 -4.11131703 8.63138339 -3.9921875 12.8671875 C-3.4844831 38.11490429 -10.42503064 56.59661197 -26.3125 76.25 C-27.199375 77.1575 -28.08625 78.065 -29 79 C-29.99 79 -30.98 79 -32 79 C-38.39218355 72.25465714 -42.48398102 64.93802547 -45 56 C-45.61488281 56.83144531 -46.22976563 57.66289063 -46.86328125 58.51953125 C-47.67955851 59.61728343 -48.49597193 60.71493437 -49.3125 61.8125 C-49.71662109 62.35970703 -50.12074219 62.90691406 -50.53710938 63.47070312 C-52.54284347 66.16132204 -54.5291298 68.72104205 -57 71 C-60.12938734 69.79638949 -61.231762 68.707248 -63.375 66 C-67.87724381 61.19291677 -74.79958325 61.49263585 -81 61 C-78.01353231 59.00902154 -75.40312738 58.05875074 -72 57 C-72.40992188 56.03320312 -72.81984375 55.06640625 -73.2421875 54.0703125 C-76.86493589 45.3866842 -79.7971136 37.39768637 -80.19140625 27.90234375 C-80.22387451 27.17716553 -80.25634277 26.4519873 -80.28979492 25.70483398 C-80.34579319 24.25577839 -80.38171849 22.80578219 -80.39575195 21.35571289 C-80.42581808 19.11078512 -80.42581808 19.11078512 -81 16 C-82.90955637 14.4428658 -82.90955637 14.4428658 -85 14 C-82.74759309 11.74759309 -81.44801722 11.37094172 -78.4296875 10.4921875 C-77.53378906 10.22792969 -76.63789063 9.96367188 -75.71484375 9.69140625 C-74.77769531 9.42199219 -73.84054687 9.15257813 -72.875 8.875 C-71.93011719 8.59785156 -70.98523438 8.32070312 -70.01171875 8.03515625 C-67.67610068 7.3509853 -65.33889477 6.67286743 -63 6 C-63.52435612 9.34454174 -64.13760029 12.48564809 -65.0625 15.75 C-68.1298532 27.90409876 -64.39218429 40.30827148 -61 52 C-57.74169438 49.09689751 -56.21265222 46.68294796 -54.8125 42.5625 C-54.48894531 41.63566406 -54.16539062 40.70882812 -53.83203125 39.75390625 C-52.24003121 34.48461035 -51.76351474 29.49333172 -51.6875 24 C-51.65849609 23.30132812 -51.62949219 22.60265625 -51.59960938 21.8828125 C-51.55310005 18.09051402 -51.87846406 16.18054082 -54.01953125 13 C-54.67308594 12.34 -55.32664062 11.68 -56 11 C-50.72722082 9.38945656 -45.49642066 8.28763792 -40.0625 7.375 C-39.28326172 7.2409375 -38.50402344 7.106875 -37.70117188 6.96875 C-35.80136729 6.6424032 -33.90076363 6.32071377 -32 6 C-33.15173355 8.46800047 -34.04783565 10.04783565 -36 12 C-37.72407133 27.15193461 -33.82843708 38.63020728 -27 52 C-20.78257805 39.77954996 -19.17119552 27.5297665 -21 14 C-21.13921875 12.90300781 -21.2784375 11.80601563 -21.421875 10.67578125 C-21.61265625 9.79277344 -21.8034375 8.90976563 -22 8 C-23.93383287 6.69934079 -23.93383287 6.69934079 -26 6 C-26.495 5.01 -26.495 5.01 -27 4 C-23.43884042 3.32603699 -19.87587859 2.66212182 -16.3125 2 C-14.80139648 1.71382813 -14.80139648 1.71382813 -13.25976562 1.421875 C-12.28330078 1.24140625 -11.30683594 1.0609375 -10.30078125 0.875 C-9.40528564 0.70742187 -8.50979004 0.53984375 -7.5871582 0.3671875 C-5.01987068 0.00282018 -2.58907987 -0.06528807 0 0 Z " fill="#FDE076" transform="translate(340,67)"></path>
  <path d="M0 0 C8.99678838 4.09068475 14.76516216 9.97319171 18.4609375 19.11328125 C20.6713641 25.74456105 20.87726902 36.20249081 17.9609375 42.61328125 C13.28383624 50.03099974 6.95143357 55.68343534 -1.5390625 58.11328125 C-6.12954706 58.95398046 -10.06696666 59.60397986 -14.5390625 58.11328125 C-14.45781558 62.63482972 -14.34499943 67.15506609 -14.2265625 71.67578125 C-14.20400391 72.95259766 -14.18144531 74.22941406 -14.15820312 75.54492188 C-13.94505228 84.75001075 -13.94505228 84.75001075 -10.5390625 93.11328125 C-8.00925543 95.06828982 -8.00925543 95.06828982 -5.5390625 96.11328125 C-6.5390625 99.11328125 -6.5390625 99.11328125 -9.390625 100.578125 C-10.64266966 101.08354062 -11.90104662 101.57344316 -13.1640625 102.05078125 C-13.83123291 102.30875488 -14.49840332 102.56672852 -15.18579102 102.83251953 C-24.55409268 106.3603135 -34.4176736 109.93951708 -44.5390625 109.11328125 C-43.518125 108.12328125 -43.518125 108.12328125 -42.4765625 107.11328125 C-33.35410642 97.96476101 -29.48322346 91.94905948 -29.36206055 78.66235352 C-29.34922531 77.42739639 -29.33639008 76.19243927 -29.32316589 74.9200592 C-29.31577896 73.60323654 -29.30839203 72.28641388 -29.30078125 70.9296875 C-29.29670572 70.25104078 -29.2926302 69.57239407 -29.28843117 68.8731823 C-29.26767371 65.28484285 -29.25332457 61.69654053 -29.24389648 58.1081543 C-29.23281778 54.42189396 -29.19837226 50.73623477 -29.15872478 47.05018711 C-29.13248149 44.19584597 -29.12419819 41.34164711 -29.12061501 38.48719597 C-29.11343632 36.47319279 -29.08704305 34.45928727 -29.06022644 32.44544983 C-29.08039178 23.91141652 -30.07614229 18.68928296 -35.2890625 11.80078125 C-36.5390625 10.11328125 -36.5390625 10.11328125 -36.5390625 7.11328125 C-35.08886719 6.87544922 -35.08886719 6.87544922 -33.609375 6.6328125 C-27.38481855 5.54034914 -21.74984936 4.53685241 -16.1640625 1.42578125 C-10.51347771 -1.64194548 -6.1079512 -2.1330845 0 0 Z M-12.25854492 17.11791992 C-15.08144323 20.8256749 -15.18803457 23.56884779 -15.02734375 28.0390625 C-15.02026901 28.78665329 -15.01319427 29.53424408 -15.00590515 30.30448914 C-14.97803895 32.67929527 -14.91532382 35.05169476 -14.8515625 37.42578125 C-14.82646918 39.04098143 -14.80365781 40.65621879 -14.78320312 42.27148438 C-14.72823897 46.21966944 -14.64202777 50.16606814 -14.5390625 54.11328125 C-13.27835938 53.83742187 -12.01765625 53.5615625 -10.71875 53.27734375 C-10.00960449 53.12217285 -9.30045898 52.96700195 -8.56982422 52.80712891 C-4.95402659 51.57172414 -3.52091647 49.26093167 -1.5390625 46.11328125 C1.66833312 36.94929377 1.40836094 28.00403771 -2.5390625 19.11328125 C-3.78930783 16.57371519 -3.78930783 16.57371519 -5.5390625 15.11328125 C-9.56551574 14.7177117 -9.56551574 14.7177117 -12.25854492 17.11791992 Z " fill="#FDE075" transform="translate(129.5390625,72.88671875)"></path>
  <path d="M0 0 C0.66 0 1.32 0 2 0 C2.10152799 6.7685324 2.03026944 13.30324864 1 20 C1.96239452 18.75312408 2.91974009 17.50235031 3.875 16.25 C4.67550781 15.20585938 4.67550781 15.20585938 5.4921875 14.140625 C6.89238914 12.15277397 7.97855265 10.20156614 9 8 C11.85760908 9.30456066 13.96323951 10.73254963 16.25 12.875 C19.87856874 16.0864014 23.60191786 17.99385727 28 20 C27.85651123 21.14944092 27.71302246 22.29888184 27.56518555 23.4831543 C27.47377289 24.21722504 27.38236023 24.95129578 27.28817749 25.70761108 C27.10698539 27.14895465 26.92300714 28.58995348 26.73501587 30.03042603 C25.29683205 41.10696455 24.65468377 52.02793433 24.68432617 63.1965332 C24.68751237 65.69721145 24.66379676 68.19672976 24.63867188 70.69726562 C24.58682559 83.46353212 25.28384624 96.14000701 31.4375 107.625 C32.01371094 108.73101562 32.58992188 109.83703125 33.18359375 110.9765625 C39.02353852 120.69724476 47.77854513 124.80278423 58 129 C58 129.33 58 129.66 58 130 C44.9491238 129.14420484 33.9458654 124.38223013 24.8125 114.9375 C5.59553188 92.04557383 9.56841338 54.12259862 9 26 C5.65753405 28.58315222 3.39761533 30.38196004 1.75 34.3125 C1.43546875 35.03050781 1.1209375 35.74851563 0.796875 36.48828125 C-1.41157683 43.44923481 -1.37376217 50.88273458 -1.5625 58.125 C-1.6562793 59.73181641 -1.6562793 59.73181641 -1.75195312 61.37109375 C-1.81514005 64.44619086 -1.78170718 67.02277483 -1 70 C1.36454747 72.45754641 3.86055241 73.73817055 7 75 C7.66 75.33 8.32 75.66 9 76 C9 76.66 9 77.32 9 78 C7.97261719 77.96519531 6.94523437 77.93039063 5.88671875 77.89453125 C-1.77789411 77.71747016 -8.42784329 77.87774028 -15.765625 80.44140625 C-18.2497096 81.0624274 -19.60786822 80.82846766 -22 80 C-20.53989502 79.12952026 -20.53989502 79.12952026 -19.05029297 78.24145508 C-16.8510544 76.39221841 -16.08423933 75.361117 -15.42486572 72.53451538 C-15.20854962 69.38998947 -15.16952727 66.28867086 -15.1953125 63.13671875 C-15.18160614 61.98959915 -15.16789978 60.84247955 -15.15377808 59.66059875 C-15.11643546 56.00250178 -15.1201963 52.34576076 -15.125 48.6875 C-15.10687643 46.20505686 -15.08607483 43.72263173 -15.0625 41.24023438 C-15.01060881 35.1600232 -14.99244556 29.08041223 -15 23 C-16.32 22.34 -17.64 21.68 -19 21 C-18.11957031 20.443125 -17.23914063 19.88625 -16.33203125 19.3125 C-8.41165693 14.16289346 -2.14142581 9.70065892 0 0 Z " fill="#FDE077" transform="translate(390,58)"></path>
  <path d="M0 0 C0.928125 1.175625 0.928125 1.175625 1.875 2.375 C4.29507551 5.36450505 6.5041956 6.4904481 10 8 C9.84152588 8.70213623 9.68305176 9.40427246 9.51977539 10.12768555 C8.98109408 13.10447541 8.79208274 15.93483803 8.68359375 18.95703125 C8.64548584 19.95968018 8.60737793 20.9623291 8.56811523 21.99536133 C8.52501221 23.25501709 8.48190918 24.51467285 8.4375 25.8125 C8.293125 29.834375 8.14875 33.85625 8 38 C-4.87 42.455 -4.87 42.455 -18 47 C-18.61588783 53.4284529 -18.61588783 53.4284529 -16.671875 56.13671875 C-14.44508236 57.93354126 -12.73184815 59.0991605 -10 60 C-5.6461142 59.43539181 -1.95722498 57.85164271 2 56 C3.26070312 55.41605469 3.26070312 55.41605469 4.546875 54.8203125 C6.3875786 53.92606997 8.19818104 52.97021021 10 52 C9.85941524 54.45873768 9.71277001 56.91685175 9.5625 59.375 C9.52318359 60.07367188 9.48386719 60.77234375 9.44335938 61.4921875 C9.11328125 66.7734375 9.11328125 66.7734375 8 69 C5.43424544 70.37953242 2.8739702 71.67864106 0.25 72.9375 C-1.18322132 73.6321999 -2.61553488 74.3287761 -4.046875 75.02734375 C-5.07458008 75.52403564 -5.07458008 75.52403564 -6.12304688 76.03076172 C-8.19005487 77.05267901 -8.19005487 77.05267901 -10.703125 78.81640625 C-13.69652315 80.35892264 -14.81892477 80.00299927 -18 79 C-20.23242188 77.20581055 -20.23242188 77.20581055 -22.46875 74.88671875 C-23.28730469 74.05076172 -24.10585937 73.21480469 -24.94921875 72.35351562 C-25.79097656 71.47373047 -26.63273438 70.59394531 -27.5 69.6875 C-29.17484953 67.96007097 -30.85186626 66.23474002 -32.53125 64.51171875 C-33.26923828 63.74303467 -34.00722656 62.97435059 -34.76757812 62.18237305 C-37.06063896 59.94072051 -39.46509043 57.96109923 -42 56 C-41.4225 55.51917969 -40.845 55.03835937 -40.25 54.54296875 C-32.4822643 46.41112044 -33.29312766 38.03218284 -33.41796875 27.30932617 C-33.4118814 20.78097143 -33.4118814 20.78097143 -36 15 C-38.05003955 13.80767387 -38.05003955 13.80767387 -40 13 C-37.27271716 10.27271716 -34.07218245 9.40692784 -30.5078125 8.14453125 C-29.76546356 7.87863693 -29.02311462 7.61274261 -28.25827026 7.33879089 C-26.68741194 6.77859199 -25.11544808 6.22148497 -23.54248047 5.66723633 C-21.13714619 4.81679447 -18.73855355 3.94900103 -16.33984375 3.08007812 C-14.81288121 2.5379875 -13.28554893 1.99693702 -11.7578125 1.45703125 C-11.04102325 1.19565872 -10.32423401 0.93428619 -9.58572388 0.66499329 C-3.17459203 -1.55975693 -3.17459203 -1.55975693 0 0 Z M-14.6875 20 C-16.110625 20.66 -17.53375 21.32 -19 22 C-19 27.28 -19 32.56 -19 38 C-17.39125 37.525625 -15.7825 37.05125 -14.125 36.5625 C-13.22007812 36.29566406 -12.31515625 36.02882813 -11.3828125 35.75390625 C-9.01724619 35.07386174 -9.01724619 35.07386174 -7 34 C-7 28.72 -7 23.44 -7 18 C-10.23655184 18 -11.78752639 18.6550847 -14.6875 20 Z " fill="#FDE076" transform="translate(186,68)"></path>
  <path d="M0 0 C1.3921875 1.2065625 1.3921875 1.2065625 2.8125 2.4375 C3.45574219 2.98277344 4.09898438 3.52804688 4.76171875 4.08984375 C6.3424935 5.43888189 7.90610926 6.8081515 9.45703125 8.19140625 C24.21919257 20.9651066 41.52883613 25.33249021 60.74267578 24.19824219 C74.46241714 22.99335034 87.88146542 18.11310578 101.01245117 14.17407227 C121.75373469 7.97489537 138.93250155 7.06689163 159 16 C159 16.66 159 17.32 159 18 C158.40276123 17.97381592 157.80552246 17.94763184 157.19018555 17.9206543 C135.46341927 17.10011001 119.22824242 21.75544238 99.2199707 29.98950195 C79.71353717 37.97074526 58.43930402 43.44074686 38.06152344 35.21777344 C21.95831604 28.25026204 8.72535777 17.40521043 0 2 C0 1.34 0 0.68 0 0 Z " fill="#1E9B96" transform="translate(122,137)"></path>
  <path d="M0 0 C0 0.99 0 1.98 0 3 C-1.6796875 4.4296875 -1.6796875 4.4296875 -3.875 5.875 C-7.26471554 8.31416039 -9.09524262 9.77779887 -10 14 C-10.97449594 20.34489329 -11.07858333 26.4644741 -11 32.875 C-10.9351302 43.63353235 -11.12904376 54.37206536 -11.4375 65.125 C-11.45723877 65.8647406 -11.47697754 66.6044812 -11.49731445 67.36663818 C-11.55488891 69.49718943 -11.61825789 71.62748659 -11.68359375 73.7578125 C-11.72025146 74.9864502 -11.75690918 76.21508789 -11.79467773 77.48095703 C-12 81 -12 81 -12.60961914 84.83154297 C-13.36620079 87.97176735 -13.36620079 87.97176735 -11.5625 89.9375 C-11.046875 90.288125 -10.53125 90.63875 -10 91 C-8.35 89.68 -6.7 88.36 -5 87 C-5 89.64 -5 92.28 -5 95 C-6.43279297 95.63615234 -6.43279297 95.63615234 -7.89453125 96.28515625 C-15.31511807 99.63496065 -22.20778698 103.15308394 -28.92578125 107.8125 C-29.95251953 108.4003125 -29.95251953 108.4003125 -31 109 C-31.66 108.67 -32.32 108.34 -33 108 C-32.57532975 107.59031542 -32.1506595 107.18063084 -31.71312046 106.75853157 C-28.12171298 103.00389426 -26.31870058 100.40293629 -26.22015381 94.98077393 C-26.23701233 94.24703552 -26.25387085 93.51329712 -26.27124023 92.75732422 C-26.2655452 91.96454071 -26.25985016 91.1717572 -26.25398254 90.35494995 C-26.24293515 87.75393493 -26.27484739 85.15547605 -26.30859375 82.5546875 C-26.31217368 80.73821304 -26.31352768 78.92173295 -26.3127594 77.10525513 C-26.31744051 73.30728137 -26.34220518 69.51016138 -26.38256836 65.71240234 C-26.43361048 60.84883185 -26.44500856 55.98619585 -26.44273281 51.12238884 C-26.44354911 47.37508251 -26.46001053 43.62797969 -26.48173714 39.88074112 C-26.49126893 38.08742943 -26.49719276 36.29409476 -26.49941826 34.50075912 C-26.50593568 31.99473645 -26.53222012 29.48969729 -26.56420898 26.98388672 C-26.56284943 26.24609985 -26.56148987 25.50831299 -26.56008911 24.74816895 C-26.6615875 19.30064915 -28.01521266 16.13180862 -31.6875 12.1875 C-32.120625 11.795625 -32.55375 11.40375 -33 11 C-26.0189277 7.60265642 -18.90000081 5.34615755 -11.4375 3.25 C-10.33341797 2.93417969 -9.22933594 2.61835937 -8.09179688 2.29296875 C-5.39613973 1.52278099 -2.69893484 0.75860569 0 0 Z " fill="#FDE078" transform="translate(230,33)"></path>
  <path d="M0 0 C0 0.66 0 1.32 0 2 C-1.57421875 3.515625 -1.57421875 3.515625 -3.6875 5.25 C-10.58026863 10.98776781 -10.58026863 10.98776781 -14 19 C-14.12869311 21.03030664 -14.20676559 23.06404301 -14.25292969 25.09790039 C-14.28255798 26.32920181 -14.31218628 27.56050323 -14.3427124 28.82911682 C-14.36965384 30.16861894 -14.39602776 31.50813257 -14.421875 32.84765625 C-14.43573494 33.52426237 -14.44959488 34.20086849 -14.46387482 34.89797783 C-14.53696053 38.4739766 -14.60452252 42.0500298 -14.66748047 45.6262207 C-14.7335736 49.3210204 -14.81818466 53.01515392 -14.9070549 56.70946598 C-14.97211394 59.55143402 -15.02361142 62.39353168 -15.07138824 65.23583794 C-15.09664332 66.59830472 -15.12700594 67.96068672 -15.16255951 69.32292366 C-15.21092901 71.22546998 -15.23827702 73.12851577 -15.26464844 75.03149414 C-15.28605896 76.11419083 -15.30746948 77.19688751 -15.32952881 78.31239319 C-15.23509881 81.04794594 -15.23509881 81.04794594 -13.48345947 82.87303162 C-12.99391785 83.24493118 -12.50437622 83.61683075 -12 84 C-11.01 83.01 -10.02 82.02 -9 81 C-8.21625 81.639375 -7.4325 82.27875 -6.625 82.9375 C-4.20460719 84.98142313 -4.20460719 84.98142313 -2 86 C-2 86.66 -2 87.32 -2 88 C-3.04341553 88.3853894 -3.04341553 88.3853894 -4.10791016 88.77856445 C-7.28158594 89.95303068 -10.45329792 91.13271462 -13.625 92.3125 C-14.71941406 92.71662109 -15.81382812 93.12074219 -16.94140625 93.53710938 C-23.40449944 95.91059221 -23.40449944 95.91059221 -29.6484375 98.79296875 C-32 100 -32 100 -34 100 C-32.88251872 97.39254368 -32.12902806 96.09584942 -29.8125 94.375 C-27.79669809 92.24397933 -27.79669809 92.24397933 -28.0368042 90.08428955 C-28.20566132 88.92736603 -28.20566132 88.92736603 -28.37792969 87.74707031 C-29.18258238 81.05285289 -29.13524413 74.40693404 -29.140625 67.671875 C-29.15668259 64.90622422 -29.17848376 62.14061922 -29.19921875 59.375 C-29.22960343 55.0474659 -29.25230795 50.72022923 -29.25048828 46.39257812 C-29.24969978 42.86640665 -29.27309843 39.34110633 -29.3123703 35.81516266 C-29.32782307 33.8355544 -29.31751869 31.85579868 -29.30670166 29.87615967 C-29.23528283 22.48066955 -29.23528283 22.48066955 -32.54199219 16.13769531 C-33.75870605 15.07953613 -33.75870605 15.07953613 -35 14 C-26.47496373 9.84298974 -17.9522118 5.82339087 -9.0625 2.5 C-8.04349609 2.11787354 -8.04349609 2.11787354 -7.00390625 1.72802734 C-2.27635282 0 -2.27635282 0 0 0 Z " fill="#FCE077" transform="translate(259,38)"></path>
  <path d="M0 0 C-0.53596802 0.83108276 -0.53596802 0.83108276 -1.08276367 1.67895508 C-6.40539848 11.30618363 -5.56161621 21.03002663 -5.3125 31.6875 C-5.28737494 33.56442328 -5.26456923 35.44137911 -5.24414062 37.31835938 C-5.18950353 41.87972143 -5.10346695 46.43949498 -5 51 C-3.02 51.99 -1.04 52.98 1 54 C-1.20157011 56.4491631 -2.1416553 57.04635992 -5.4375 58.125 C-9.61500541 59.53797977 -12.51794648 61.86842114 -15.9375 64.625 C-21.16656421 68.72453319 -24.38878223 70.11018696 -31 70 C-31 69.34 -31 68.68 -31 68 C-30.22076172 67.65388672 -30.22076172 67.65388672 -29.42578125 67.30078125 C-24.8570703 65.16421217 -21.01779356 63.18597171 -18 59 C-18.27306709 56.65884859 -18.61876964 54.32598774 -19 52 C-19.17443586 49.0613293 -19.20667482 46.12292979 -19.24609375 43.1796875 C-19.27900521 41.49348387 -19.31221728 39.80728608 -19.34570312 38.12109375 C-19.3932036 35.49010866 -19.43773534 32.85915172 -19.47680664 30.22802734 C-19.5165746 27.67001852 -19.56806951 25.11245113 -19.62109375 22.5546875 C-19.6295079 21.77124969 -19.63792206 20.98781189 -19.64659119 20.18063354 C-19.76191071 15.06798344 -20.7480487 11.5039026 -23 7 C-21.33710938 6.38511719 -21.33710938 6.38511719 -19.640625 5.7578125 C-18.17703971 5.21365899 -16.71350045 4.66938165 -15.25 4.125 C-14.52039063 3.85558594 -13.79078125 3.58617188 -13.0390625 3.30859375 C-8.76921331 1.72042071 -8.76921331 1.72042071 -4.671875 -0.2578125 C-3 -1 -3 -1 0 0 Z " fill="#FDE077" transform="translate(366,72)"></path>
  <path d="M0 0 C-3.30920181 2.20613454 -6.66009184 3.37689399 -10.375 4.6875 C-21.62401362 8.79832934 -31.94629757 14.03408067 -41 22 C-41.74894531 22.65484375 -42.49789062 23.3096875 -43.26953125 23.984375 C-50.39901655 30.6401807 -55.38989561 38.54133723 -59.58203125 47.30859375 C-61 50 -61 50 -63.3125 51.375 C-66.29262326 52.06805192 -68.95032327 52.14184543 -72 52 C-73 49 -73 49 -72.1015625 46.6875 C-58.92906438 22.7121595 -38.13860636 9.72914076 -12.50390625 2.015625 C-8.09578945 0.73790999 -4.5989494 -0.12774859 0 0 Z " fill="#209B96" transform="translate(213,24)"></path>
  <path d="M0 0 C3.16115776 1.36983503 3.9927092 1.9890638 6 5 C5.54418207 11.2801582 1.43886219 14.92552202 -3 19 C-15.96232558 28.85981407 -33.38725502 37.54767291 -50 37 C-47.88498712 34.88498712 -46.65346092 34.36458258 -43.88671875 33.37109375 C-24.86638459 26.30956386 -11.29953082 17.2317845 0 0 Z " fill="#1F9B95" transform="translate(294,143)"></path>
  <path d="M0 0 C13.51625623 2.09064395 25.11250485 13.30455075 34 23 C34.66 23.99 35.32 24.98 36 26 C35.67 27.32 35.34 28.64 35 30 C32.03 30.33 29.06 30.66 26 31 C25.64808594 30.43152344 25.29617188 29.86304687 24.93359375 29.27734375 C17.57884547 17.77474787 8.2874459 10.88960302 -4 5 C-2.68 3.35 -1.36 1.7 0 0 Z " fill="#1F9B95" transform="translate(261,42)"></path>
  <path d="M0 0 C6.0671482 0.51100312 10.79689853 2.41870443 16.25 5.0625 C17.50961548 5.66868164 17.50961548 5.66868164 18.79467773 6.28710938 C25.41254843 9.55229179 31.33264262 13.24969074 37 18 C37.85851562 18.70898438 38.71703125 19.41796875 39.6015625 20.1484375 C45.35679137 25.10384605 50.9823815 30.50223153 55 37 C55 38.32 55 39.64 55 41 C50.545 41.495 50.545 41.495 46 42 C45.505 40.88625 45.01 39.7725 44.5 38.625 C41.74836223 33.14110218 38.00410975 28.61728523 34 24 C33.40445313 23.30777344 32.80890625 22.61554687 32.1953125 21.90234375 C23.4537415 12.46669951 11.52284589 6.38154891 0 1 C0 0.67 0 0.34 0 0 Z " fill="#219A94" transform="translate(258,26)"></path>
  <path d="M0 0 C0.66 0 1.32 0 2 0 C2.25523438 0.97839844 2.25523438 0.97839844 2.515625 1.9765625 C4.52365414 9.21828462 6.73606045 14.51454851 13 19 C12.55269531 19.46148437 12.10539062 19.92296875 11.64453125 20.3984375 C6.92009376 25.49559181 3.81795697 30.66284331 1 37 C-0.08416008 34.8565459 -1.13651059 32.70608434 -2.1484375 30.52734375 C-2.55320312 29.67269531 -2.95796875 28.81804687 -3.375 27.9375 C-3.77460937 27.08027344 -4.17421875 26.22304687 -4.5859375 25.33984375 C-6.10049655 22.83370874 -7.56294095 21.58149577 -10 20 C-9 17 -9 17 -6.625 14.8125 C-2.60549093 10.50588314 -1.35508033 5.63362101 0 0 Z " fill="#E79636" transform="translate(10,87)"></path>
  <path d="M0 0 C2.14095981 2.74017888 3.91157139 5.50388305 5.5625 8.5625 C6.95878567 11.14193116 8.36920166 13.55380249 10 16 C9.60167969 16.59425781 9.20335937 17.18851563 8.79296875 17.80078125 C4.82484086 24.00882561 2.55829243 29.80998405 1 37 C0.34 37 -0.32 37 -1 37 C-1.24234375 35.98679688 -1.4846875 34.97359375 -1.734375 33.9296875 C-2.07230396 32.57797167 -2.41088024 31.22641757 -2.75 29.875 C-2.90726563 29.20984375 -3.06453125 28.5446875 -3.2265625 27.859375 C-4.41705922 23.1889648 -6.12726353 19.87457314 -9 16 C-7.86114632 13.53248369 -6.5871317 11.38735672 -5.0625 9.125 C-3.10984515 6.16643204 -1.52227567 3.19677892 0 0 Z " fill="#E69536" transform="translate(228,175)"></path>
  <path d="M0 0 C1.68198016 2.52297023 2.69947379 4.5995389 3.8125 7.375 C5.62004527 11.56986921 7.66484157 13.94277144 11 17 C11 17.66 11 18.32 11 19 C10.23300781 19.57234375 9.46601563 20.1446875 8.67578125 20.734375 C5.55825163 23.37403512 4.62855296 25.46208936 3.1875 29.25 C2.76855469 30.32765625 2.34960938 31.4053125 1.91796875 32.515625 C1.61503906 33.33546875 1.31210937 34.1553125 1 35 C-1.78564948 33.60717526 -1.8489485 32.08333957 -2.875 29.1875 C-4.37805837 25.26502053 -5.67022217 22.6853047 -9 20 C-10 19 -11 18 -12 17 C-11.0925 16.505 -10.185 16.01 -9.25 15.5 C-5.25825472 12.8545273 -3.77988106 9.32134584 -2 5 C-1.5875 4.01 -1.175 3.02 -0.75 2 C-0.5025 1.34 -0.255 0.68 0 0 Z " fill="#E69838" transform="translate(441,88)"></path>
  <path d="M0 0 C0.66 0 1.32 0 2 0 C2.24234375 0.86882813 2.4846875 1.73765625 2.734375 2.6328125 C4.69164828 9.97567557 4.69164828 9.97567557 8.3125 16.5625 C10 19 10 19 9.828125 20.85546875 C8.77772875 23.57559867 7.26878135 25.48587033 5.4375 27.75 C4.79683594 28.54921875 4.15617188 29.3484375 3.49609375 30.171875 C3.00238281 30.77515625 2.50867188 31.3784375 2 32 C-1.79620155 30.73459948 -2.48678188 29.21781569 -4.6875 25.9375 C-5.31011719 25.01839844 -5.93273437 24.09929688 -6.57421875 23.15234375 C-7.04472656 22.44207031 -7.51523438 21.73179688 -8 21 C-7.71125 20.43925781 -7.4225 19.87851562 -7.125 19.30078125 C-4.09440369 13.10279087 -1.74002647 6.67010148 0 0 Z " fill="#FCBD52" transform="translate(227,0)"></path>
  <path d="M0 0 C0.495 2.97 0.495 2.97 1 6 C0.21496094 6.50789063 -0.57007813 7.01578125 -1.37890625 7.5390625 C-8.2757017 11.99316512 -8.2757017 11.99316512 -14.5625 17.25 C-18.62650477 20.91262158 -23.71321271 22.77932459 -29 24 C-29.99 23.67 -30.98 23.34 -32 23 C-25.60822516 13.75027145 -12.22081769 0 0 0 Z " fill="#209A95" transform="translate(194,46)"></path>
  <path d="M0 0 C4.28359673 1.8855148 6.15103592 4.35965701 9 8 C7.25731793 11.96064107 4.85325271 15.74436549 2 19 C1.34 19 0.68 19 0 19 C-1.5078125 17.390625 -1.5078125 17.390625 -3.125 15.25 C-3.66382813 14.55390625 -4.20265625 13.8578125 -4.7578125 13.140625 C-6 11 -6 11 -6 7 C-4.6875 5.078125 -4.6875 5.078125 -3 3.25 C-2.443125 2.63640625 -1.88625 2.0228125 -1.3125 1.390625 C-0.6628125 0.70226563 -0.6628125 0.70226563 0 0 Z " fill="#FBE176" transform="translate(353,46)"></path>
  <path d="M0 0 C4.53786224 2.26893112 5.94678157 4.09866534 9 8 C7.25731793 11.96064107 4.85325271 15.74436549 2 19 C1.34 19 0.68 19 0 19 C-1.47265625 17.3203125 -1.47265625 17.3203125 -3.0625 15.125 C-3.58972656 14.40570313 -4.11695313 13.68640625 -4.66015625 12.9453125 C-6 11 -6 11 -7 9 C-4.69 6.03 -2.38 3.06 0 0 Z " fill="#FCDF76" transform="translate(55,123)"></path>
  <path d="M0 0 C0.66 0 1.32 0 2 0 C1.67 10.89 1.34 21.78 1 33 C0.34 33 -0.32 33 -1 33 C-1.31453125 32.31292969 -1.6290625 31.62585938 -1.953125 30.91796875 C-2.59507812 29.56638672 -2.59507812 29.56638672 -3.25 28.1875 C-3.66765625 27.29417969 -4.0853125 26.40085937 -4.515625 25.48046875 C-6.06539789 22.89071669 -7.48400766 21.61819166 -10 20 C-9 17 -9 17 -6.625 14.8125 C-2.60549093 10.50588314 -1.35508033 5.63362101 0 0 Z " fill="#CA7320" transform="translate(10,87)"></path>
  <path d="M0 0 C0.33 0 0.66 0 1 0 C1.33 11.88 1.66 23.76 2 36 C1.34 36 0.68 36 0 36 C-0.24234375 34.98679688 -0.4846875 33.97359375 -0.734375 32.9296875 C-1.07230396 31.57797167 -1.41088024 30.22641757 -1.75 28.875 C-1.90726563 28.20984375 -2.06453125 27.5446875 -2.2265625 26.859375 C-3.41705922 22.1889648 -5.12726353 18.87457314 -8 15 C-6.84576027 12.49914724 -5.5573905 10.3499173 -4 8.0625 C-2.25538377 5.39105639 -1.0562707 2.99276699 0 0 Z " fill="#BC6921" transform="translate(227,176)"></path>
  <path d="M0 0 C0.33 0 0.66 0 1 0 C1.33 10.89 1.66 21.78 2 33 C-0.78564948 31.60717526 -0.8489485 30.08333957 -1.875 27.1875 C-3.37805837 23.26502053 -4.67022217 20.6853047 -8 18 C-9 17 -10 16 -11 15 C-10.0925 14.505 -9.185 14.01 -8.25 13.5 C-3.45147426 10.33501494 -1.7566035 5.26981051 0 0 Z " fill="#BC6A1F" transform="translate(440,90)"></path>
  <path d="M0 0 C0.66 0 1.32 0 2 0 C1.67 10.56 1.34 21.12 1 32 C-2.87961647 28.12038353 -5.2157554 25.43416733 -8 21 C-7.71125 20.43925781 -7.4225 19.87851562 -7.125 19.30078125 C-4.09440369 13.10279087 -1.74002647 6.67010148 0 0 Z " fill="#E69734" transform="translate(227,0)"></path>
  <path d="M0 0 C2.19978339 2.19978339 3.02870474 4.05650486 4.3125 6.875 C6.29406124 10.95607255 8.07366457 13.53201773 12 16 C8.04 16 4.08 16 0 16 C0 10.72 0 5.44 0 0 Z " fill="#FCBB52" transform="translate(11,90)"></path>
  <path d="M0 0 C1.68198016 2.52297023 2.69947379 4.5995389 3.8125 7.375 C5.62004527 11.56986921 7.66484157 13.94277144 11 17 C11 17.66 11 18.32 11 19 C7.7 18.67 4.4 18.34 1 18 C0.93941406 17.02417969 0.87882812 16.04835938 0.81640625 15.04296875 C0.73261719 13.77066406 0.64882813 12.49835938 0.5625 11.1875 C0.48128906 9.92292969 0.40007812 8.65835938 0.31640625 7.35546875 C0.12815453 4.00818107 0.12815453 4.00818107 -1 1 C-0.67 0.67 -0.34 0.34 0 0 Z " fill="#FABC55" transform="translate(441,88)"></path>
  <path d="M0 0 C0.33 0.99 0.66 1.98 1 3 C0.08254365 4.35919459 -0.84307547 5.71357748 -1.80859375 7.0390625 C-4.23355902 11.03031682 -5.52449307 15.5891761 -7 20 C-8.9375 19.625 -8.9375 19.625 -11 19 C-11.33 18.34 -11.66 17.68 -12 17 C-8.760553 10.84303861 -4.62346306 5.18388283 0 0 Z " fill="#219A93" transform="translate(142,51)"></path>
  <path d="M0 0 C0.66 0.33 1.32 0.66 2 1 C0.35 4.96 -1.3 8.92 -3 13 C-3.66 13 -4.32 13 -5 13 C-6.14457068 10.57620326 -7 8.64017887 -7 5.9375 C-5.43977097 2.91455625 -2.85991888 1.70378146 0 0 Z " fill="#239995" transform="translate(87,165)"></path>
  <path d="M0 0 C0.33 0.99 0.66 1.98 1 3 C-1.84605502 8.29344086 -6.18611016 12.49898921 -11 16 C-11.66 16 -12.32 16 -13 16 C-11.59368017 12.88103324 -9.90245104 10.54597146 -7.625 8 C-7.00753906 7.3090625 -6.39007813 6.618125 -5.75390625 5.90625 C-3.889351 3.87974006 -1.9867193 1.90725053 0 0 Z " fill="#269992" transform="translate(316,145)"></path>
  <path d="M0 0 C1.916588 -0.02712153 3.8332873 -0.04645097 5.75 -0.0625 C7.35101563 -0.07990234 7.35101563 -0.07990234 8.984375 -0.09765625 C11.53368501 -0.01510087 13.57933591 0.25382442 16 1 C16 1.66 16 2.32 16 3 C7.585 3.495 7.585 3.495 -1 4 C-0.67 2.68 -0.34 1.36 0 0 Z " fill="#269892" transform="translate(235,35)"></path>
  <path d="M0 0 C-5.26904402 3.51269601 -11.30253469 6.182879 -17.6875 5.75 C-18.8321875 5.37875 -18.8321875 5.37875 -20 5 C-16.9182501 2.94550007 -14.6904243 2.25524191 -11.125 1.375 C-10.09632813 1.11460938 -9.06765625 0.85421875 -8.0078125 0.5859375 C-5.24120939 0.04698884 -2.80715804 -0.11394368 0 0 Z " fill="#29978F" transform="translate(213,24)"></path>
  <path d="M0 0 C0.33 0.99 0.66 1.98 1 3 C-0.65 4.65 -2.3 6.3 -4 8 C-3.34 8.66 -2.68 9.32 -2 10 C-4.64 10 -7.28 10 -10 10 C-6.66666667 6.66666667 -3.33333333 3.33333333 0 0 Z " fill="#F5E381" transform="translate(95,172)"></path>
  <path d="M0 0 C0.33 0.66 0.66 1.32 1 2 C1.99 2.33 2.98 2.66 4 3 C-5.41002278 5.29612756 -5.41002278 5.29612756 -10 5 C-7.90217213 2.90217213 -6.6200793 2.3490604 -3.875 1.375 C-3.15054688 1.11460937 -2.42609375 0.85421875 -1.6796875 0.5859375 C-0.84824219 0.29589844 -0.84824219 0.29589844 0 0 Z " fill="#2C9790" transform="translate(254,175)"></path>
  <path d="M0 0 C0.33 3.3 0.66 6.6 1 10 C0.34 10 -0.32 10 -1 10 C-1.99 7.03 -2.98 4.06 -4 1 C-1 0 -1 0 0 0 Z " fill="#BC681A" transform="translate(10,110)"></path>
  <path d="M0 0 C-0.928125 0.4021875 -0.928125 0.4021875 -1.875 0.8125 C-4.2995233 1.95556848 -4.2995233 1.95556848 -6 5 C-7.32 4.34 -8.64 3.68 -10 3 C-7.28464405 0.28464405 -3.67870689 -1.83935344 0 0 Z " fill="#F7E186" transform="translate(156,78)"></path>
  <path d="M0 0 C0.33 0 0.66 0 1 0 C1.36923077 6.52307692 1.36923077 6.52307692 -0.5 8.9375 C-0.995 9.288125 -1.49 9.63875 -2 10 C-1.125 2.25 -1.125 2.25 0 0 Z " fill="#DF8E38" transform="translate(12,114)"></path>
  <path d="M0 0 C0.99 0.33 1.98 0.66 3 1 C1.68 2.65 0.36 4.3 -1 6 C-1.99 5.67 -2.98 5.34 -4 5 C-2.68 3.35 -1.36 1.7 0 0 Z " fill="#2C9697" transform="translate(261,42)"></path>
  <path d="" fill="#F6E096" transform="translate(0,0)"></path>
  <path d="" fill="#EDE0A5" transform="translate(0,0)"></path>
  <path d="" fill="#F0E199" transform="translate(0,0)"></path>
  <path d="" fill="#F5DD9F" transform="translate(0,0)"></path>
  <path d="" fill="#F0DEA9" transform="translate(0,0)"></path>
  <path d="" fill="#F7DF91" transform="translate(0,0)"></path>
  <path d="" fill="#F2DF9F" transform="translate(0,0)"></path>
  <path d="" fill="#F0DFA1" transform="translate(0,0)"></path>
</svg>
