<?xml version="1.0" encoding="UTF-8"?>
<svg xmlns="http://www.w3.org/2000/svg" xmlns:xlink="http://www.w3.org/1999/xlink" width="175" height="175" viewBox="0 0 175 175">
  <defs>
    <style>.a{fill:url(#a);}.b{fill:#faff03;}</style>
    <linearGradient id="a" y1="87.5" x2="175" y2="87.5" gradientUnits="userSpaceOnUse">
      <stop offset="0" stop-color="#030025"></stop>
      <stop offset="1" stop-color="#420a3d"></stop>
    </linearGradient>
  </defs>
  <circle class="a" cx="87.5" cy="87.5" r="87.5"></circle>
  <path class="b" d="M148.7,98.7a11.6,11.6,0,0,1-4.7-.9,8.8,8.8,0,0,1-3.6-2.4,12.1,12.1,0,0,1-2.4-3.5,13.2,13.2,0,0,1-.8-4.4,12.3,12.3,0,0,1,.8-4.4,11.1,11.1,0,0,1,2.3-3.6,9.7,9.7,0,0,1,3.6-2.3,12.4,12.4,0,0,1,4.8-.9,11.4,11.4,0,0,1,4.6.9,8.3,8.3,0,0,1,3.6,2.3,9.9,9.9,0,0,1,2.4,3.6,10.8,10.8,0,0,1,.8,4.4,11.1,11.1,0,0,1-.8,4.4,10.4,10.4,0,0,1-2.4,3.5,7.6,7.6,0,0,1-3.6,2.4A11.4,11.4,0,0,1,148.7,98.7Zm0-4.4a7,7,0,0,0,2.5-.5,5.9,5.9,0,0,0,2-1.5,7.4,7.4,0,0,0,1.3-2.1,8.4,8.4,0,0,0,.4-2.7,7.7,7.7,0,0,0-.4-2.7,8,8,0,0,0-1.3-2.2,5.6,5.6,0,0,0-2-1.4,7,7,0,0,0-2.5-.5,7.1,7.1,0,0,0-2.6.5,6.6,6.6,0,0,0-2,1.4,8,8,0,0,0-1.3,2.2,7.7,7.7,0,0,0-.4,2.7,8.4,8.4,0,0,0,.4,2.7,7.4,7.4,0,0,0,1.3,2.1,7,7,0,0,0,2,1.5A7.1,7.1,0,0,0,148.7,94.3Zm-31.6,4V76.7H127a9,9,0,0,1,4,.9,8.1,8.1,0,0,1,2.8,2.7,6.4,6.4,0,0,1,1.1,3.9,7,7,0,0,1-1,3.8,7.2,7.2,0,0,1-2.6,2.6l1.8,3,.3.3h2.5l.9,4.3h-4a5.4,5.4,0,0,1-2.5-.6,7.7,7.7,0,0,1-1.8-1.8l-2.3-4.1h-3.9v6.5Zm5.2-10.8h4.1a3.5,3.5,0,0,0,1.7-.4,2.5,2.5,0,0,0,1.2-1.1,3.3,3.3,0,0,0,.4-1.7,3.4,3.4,0,0,0-.4-1.8,3.5,3.5,0,0,0-1.3-1.1,2.9,2.9,0,0,0-1.6-.4h-4.1ZM102.9,98.7a11.9,11.9,0,0,1-4.7-.9,8.8,8.8,0,0,1-3.6-2.4,12.1,12.1,0,0,1-2.4-3.5,13.2,13.2,0,0,1-.8-4.4,12.3,12.3,0,0,1,.8-4.4,11.3,11.3,0,0,1,2.4-3.6,9.7,9.7,0,0,1,3.6-2.3,12.7,12.7,0,0,1,9.4,0,9.9,9.9,0,0,1,5.9,5.9,10.8,10.8,0,0,1,.9,4.4,11.2,11.2,0,0,1-.9,4.4,10.1,10.1,0,0,1-2.3,3.5,8.8,8.8,0,0,1-3.6,2.4A11.9,11.9,0,0,1,102.9,98.7Zm0-4.4a7,7,0,0,0,2.5-.5,5,5,0,0,0,2-1.5,5.7,5.7,0,0,0,1.3-2.1,8.6,8.6,0,0,0,.5-2.7,7.6,7.6,0,0,0-.5-2.7,6.1,6.1,0,0,0-1.3-2.2,4.8,4.8,0,0,0-2-1.4,7,7,0,0,0-2.5-.5,6.6,6.6,0,0,0-2.5.5,4.8,4.8,0,0,0-2,1.4,6.1,6.1,0,0,0-1.3,2.2,7.6,7.6,0,0,0-.5,2.7,8.6,8.6,0,0,0,.5,2.7,5.7,5.7,0,0,0,1.3,2.1,5,5,0,0,0,2,1.5A6.6,6.6,0,0,0,102.9,94.3Zm-17.1,4a6.8,6.8,0,0,1-3.5-.9,6.6,6.6,0,0,1-2.4-2.3,7.3,7.3,0,0,1-.8-3.3V81H73.2V76.7H90.1V81H84.3V92.2a2.1,2.1,0,0,0,.5,1.3A1.7,1.7,0,0,0,86,94h2.6l.9,4.3Zm-25.3.4a11.9,11.9,0,0,1-4.7-.9,8.8,8.8,0,0,1-3.6-2.4,10.1,10.1,0,0,1-2.3-3.5,11.1,11.1,0,0,1-.8-4.4,10.5,10.5,0,0,1,.8-4.4,9.9,9.9,0,0,1,5.9-5.9,12.7,12.7,0,0,1,9.4,0,9.9,9.9,0,0,1,5.9,5.9,10.8,10.8,0,0,1,.9,4.4,11.2,11.2,0,0,1-.9,4.4,10.1,10.1,0,0,1-2.3,3.5,8.8,8.8,0,0,1-3.6,2.4A11.9,11.9,0,0,1,60.5,98.7Zm0-4.4a6.6,6.6,0,0,0,2.5-.5,5,5,0,0,0,2-1.5,5.7,5.7,0,0,0,1.3-2.1,8.6,8.6,0,0,0,.5-2.7,7.6,7.6,0,0,0-.5-2.7A6.1,6.1,0,0,0,65,82.6a4.8,4.8,0,0,0-2-1.4,6.5,6.5,0,0,0-5,0,5.6,5.6,0,0,0-2,1.4,6.1,6.1,0,0,0-1.3,2.2,7.6,7.6,0,0,0-.5,2.7,8.6,8.6,0,0,0,.5,2.7A5.7,5.7,0,0,0,56,92.3a5.9,5.9,0,0,0,2,1.5A6.6,6.6,0,0,0,60.5,94.3Zm-19,4a6.8,6.8,0,0,1-3.5-.9,6.9,6.9,0,0,1-3.2-5.6V76.7H40V92.1a1.6,1.6,0,0,0,.6,1.3,1.5,1.5,0,0,0,1.3.6h5.7l.8,4.3Zm-25.7,0V94H25a2,2,0,0,0,1.1-.3l.8-.8a2.3,2.3,0,0,0,.3-1.1,2,2,0,0,0-.3-1.1,3,3,0,0,0-.8-.8,2,2,0,0,0-1.1-.3H21.7a8.2,8.2,0,0,1-3.5-.8,6.1,6.1,0,0,1-2.4-2.1,6.8,6.8,0,0,1-.9-3.5,7.1,7.1,0,0,1,.8-3.4,6.6,6.6,0,0,1,2.4-2.3,7.3,7.3,0,0,1,3.3-.8h9.5V81h-9a1.9,1.9,0,0,0-1,.3l-.7.7a2,2,0,0,0-.2,1.1,1.8,1.8,0,0,0,.2,1,2.3,2.3,0,0,0,.7.7,1.9,1.9,0,0,0,1,.3h3.5a6.8,6.8,0,0,1,3.6.8,5.6,5.6,0,0,1,2.4,2.2,5.7,5.7,0,0,1,.9,3.2,7.4,7.4,0,0,1-.9,3.8A6.2,6.2,0,0,1,29,97.5a7.3,7.3,0,0,1-3.3.8Z"></path>
</svg>
