<?xml version="1.0" encoding="UTF-8"?>
<svg xmlns="http://www.w3.org/2000/svg" width="140" height="65" viewBox="0 0 140 65" fill="none">
  <path d="M111.078 35.914C103.917 35.914 98.1554 41.9756 98.1554 49.457C98.1554 56.9384 103.917 63 111.078 63C118.239 63 124 56.9384 124 49.457C124 41.9756 118.239 35.914 111.078 35.914ZM111.078 39.7366C116.139 39.7366 120.23 44.0508 120.23 49.457C120.23 54.8633 116.139 59.1773 111.078 59.1773C106.017 59.1773 101.924 54.8633 101.924 49.457C101.924 44.0508 106.017 39.7366 111.078 39.7366Z" fill="#F9F0D7"></path>
  <path d="M71.4851 35.968V62.8901H75.2003V35.968H71.4851Z" fill="#F9F0D7"></path>
  <path d="M79.517 62.8355H83.0161V46.8353L95.7236 62.8902V35.9135H92.2232V52.2415L79.517 35.8588V62.8355Z" fill="#F9F0D7"></path>
  <path d="M28.9222 35.914C21.7611 35.914 16 41.9756 16 49.457C16 56.9384 21.7611 62.9995 28.9222 63C31.5999 63.0001 32.368 62.5085 32.368 62.5085V58.4674C31.2912 58.9043 30.1605 59.1773 28.9222 59.1773C23.861 59.1773 19.769 54.8633 19.769 49.457C19.769 44.0508 23.8042 40.5174 28.9222 39.7366C30.2529 39.5336 32.368 39.7737 32.368 39.7737V36.4055C31.2912 36.0779 30.1066 35.914 28.9222 35.914Z" fill="#F9F0D7"></path>
  <path d="M61.1528 35.9135C60.0221 35.9135 59.0529 36.1865 58.1377 36.7872C57.2223 37.3334 56.5224 38.1524 56.0379 39.2446C55.4993 40.2821 55.284 41.5382 55.284 43.0126C55.284 44.487 55.4456 45.6885 55.7687 46.5622C56.0916 47.4359 56.5224 48.1459 57.007 48.7465C57.4915 49.3472 58.03 49.8387 58.5684 50.2209C59.1068 50.6033 59.5915 50.8762 60.0221 51.0947C60.8298 51.5315 61.4759 51.9139 62.0681 52.2961C62.6065 52.6783 63.0373 53.1152 63.3065 53.6067C63.5757 54.0982 63.7372 54.7535 63.7372 55.518C63.7372 56.2825 63.5219 57.1563 63.0373 57.7023C62.5528 58.2484 61.9605 58.5215 61.2605 58.5215C60.5606 58.5215 60.0221 58.3031 59.4837 57.9207C58.9453 57.5385 58.4608 56.9925 57.9762 56.2825C57.5454 55.5726 57.1147 54.7535 56.7378 53.8251L54.1534 56.4463C54.5302 57.6478 55.0687 58.74 55.7687 59.7228C56.4686 60.7605 57.2762 61.5249 58.2453 62.1256C59.2145 62.7264 60.1836 62.9993 61.3143 62.9993C62.445 62.9993 62.9296 62.8355 63.6296 62.4533C64.3834 62.1256 65.0294 61.5796 65.6217 60.9243C66.214 60.269 66.6985 59.4498 67.0216 58.4669C67.3447 57.4839 67.5605 56.3917 67.5605 55.1904C67.5605 53.9889 67.4525 53.1152 67.1832 52.2961C66.914 51.477 66.5909 50.7124 66.1601 50.1118C65.7294 49.511 65.2449 48.965 64.7064 48.5281C64.168 48.0912 63.6296 47.709 63.0373 47.4359C62.122 46.9991 61.3682 46.5622 60.7759 46.1253C60.1836 45.6885 59.6991 45.2516 59.4299 44.7601C58.9992 43.9955 58.9992 43.3402 58.9992 42.6849C58.9992 42.0296 59.1607 41.4836 59.5376 41.0467C59.9144 40.5552 60.4528 40.3368 61.1528 40.3368C61.8528 40.3368 62.1758 40.5006 62.6065 40.7736C63.0373 41.1014 63.4141 41.4836 63.7372 41.9751C64.0603 42.4665 64.3295 43.0126 64.5987 43.6133L67.4525 41.3743C67.1293 40.5006 66.6985 39.6268 66.1601 38.7531C65.6217 37.934 64.9218 37.2241 64.1142 36.6781C63.3065 36.1319 62.2835 35.8588 61.1528 35.8588V35.9135Z" fill="#F9F0D7"></path>
  <path d="M44.146 35.968L35.1005 62.8901H39.1925L41.077 57.1015H47.2149L49.0994 62.8901H53.2452L44.1997 35.968H44.146ZM44.146 45.6883L46.3534 53.0059H41.8846L44.146 45.6883Z" fill="#F9F0D7"></path>
  <path d="M93.4211 2C86.2603 2 80.4988 8.06154 80.4988 15.5429C80.4988 23.0243 86.2603 29.0859 93.4211 29.0859C100.582 29.0859 106.343 23.0243 106.343 15.5429C106.343 8.06154 100.529 2 93.4211 2ZM93.4211 5.82257C98.4823 5.82257 102.574 10.1367 102.574 15.5429C102.574 20.9492 98.4823 25.2633 93.4211 25.2633C88.36 25.2633 84.2673 20.9492 84.2673 15.5429C84.2673 10.1367 88.36 5.82257 93.4211 5.82257Z" fill="#F9F0D7"></path>
  <path d="M47.5375 2V6.6963H52.3294V28.9221H55.9906V6.6963H60.8365V2H47.5375Z" fill="#F9F0D7"></path>
  <path d="M33.1034 2V28.9221H44.4641V24.4988H36.6031V23.1336H43.9257V18.8194H36.6031V6.42336H44.4641V2H33.1034Z" fill="#F9F0D7"></path>
  <path d="M16 2.05517V28.9773H19.7151V24.7724C20.8458 24.7724 21.8689 24.6085 22.8918 24.2809L25.1531 28.9773H29.4606L26.1224 22.5881C28.8145 20.5129 30.5373 17.1818 30.5373 13.4684C30.5373 7.18834 25.7454 2.05517 19.7151 2.05517H16ZM19.7151 5.87774C23.5918 5.87774 26.7684 9.26353 26.7684 13.4138C26.7684 17.564 23.5918 20.9498 19.7151 20.9498V5.87774Z" fill="#F9F0D7"></path>
  <path d="M63.7766 2.05517V28.9773H67.4912V24.7724C68.6224 24.7724 69.6456 24.6085 70.6687 24.2809L72.9298 28.9773H77.2373L73.8983 22.5881C76.5903 20.5129 78.3138 17.1818 78.3138 13.4684C78.3138 7.18834 73.5221 2.05517 67.4912 2.05517H63.7766ZM67.4912 5.87774C71.3677 5.87774 74.5453 9.26353 74.5453 13.4138C74.5453 17.564 71.3677 20.9498 67.4912 20.9498V5.87774Z" fill="#F9F0D7"></path>
</svg>
